<?xml version="1.0" encoding="utf-8"?>
<!-- Generator: Adobe Illustrator 27.5.0, SVG Export Plug-In . SVG Version: 6.00 Build 0)  -->
<svg version="1.1" xmlns="http://www.w3.org/2000/svg" xmlns:xlink="http://www.w3.org/1999/xlink" x="0px" y="0px"
	 viewBox="0 0 500 500" style="enable-background:new 0 0 500 500;" xml:space="preserve">
<g id="BACKGROUND">
	<rect style="fill:#FFFFFF;" width="500" height="500"/>
	<g>
		<path style="fill:#D5F2F9;" d="M234.916,465.556c-149.857,0-203.777-7.003-203.777-116.944c0-48.575-0.492-97.749,7.286-145.844
			c6.234-38.548,18.742-81.151,49.612-107.422c36.388-30.965,103.25-70.628,151.08-43.647c27.31,15.406,53.92,47.618,107.841,49.019
			c53.92,1.4,107.141,49.019,116.944,120.446c9.804,71.427,12.605,182.769-28.011,219.883
			C409.206,465.432,313.346,465.556,234.916,465.556z"/>
		<path style="fill:#D5F2F9;" d="M317.201,83.084c11.561,1.975,24.662-0.106,32.723-7.4c3.519-3.184,5.995-7.587,4.984-11.864
			c-0.623-2.639-2.491-4.944-4.534-7.005c-11.246-11.348-29.472-17.429-46.831-15.626c-13.993,1.454-26.742,10.651-21.112,23.61
			C286.756,74.749,306.111,81.19,317.201,83.084z"/>
	</g>
</g>
<g id="OBJECTS">
	<path style="fill:#1B2A3B;" d="M55.839,433.652c36.657,14.684,93.866,16.377,177.267,16.377c74.924,0,163.859-0.089,208.198-14.66
		c12.459-14.895,20.09-37.76,24.333-64.099H32.044C34.491,399.794,42.046,419.736,55.839,433.652z"/>
	<path style="fill:#9DC9DD;" d="M34.034,386.797c12.93,73.459,70.703,78.759,200.882,78.759c78.43,0,174.289-0.123,200.976-24.509
		c12.914-11.8,21.433-31.111,26.739-54.25H34.034z"/>
	<g>
		<path style="fill:#9DC9DD;" d="M162.116,125.197c-1.533,5.783,0.074,12.584,4.815,16.232c2.319,1.784,5.192,2.723,8.081,3.184
			c11.167,1.784,23.535-4.233,27.75-14.727c0.547-1.362,0.965-2.807,0.911-4.274c-0.093-2.526-1.581-4.818-3.414-6.559
			C190.87,110.139,166.045,110.371,162.116,125.197z"/>
		<path style="fill:#9DC9DD;" d="M176.44,276.957c-19.689-20.448-33.103-51.35-26.688-80.164
			c5.812-26.104,36.452-50.497,63.752-42.302c6.636,1.992,12.556,5.928,18.54,9.536c10.023,6.043,20.712,11.356,32.174,12.941
			c9.055,1.252,18.517,0.173,27.117,3.398c10.305,3.864,17.983,13.717,21.119,24.714c3.136,10.997,2.11,22.964-1.246,33.89
			c-14.44,47.02-73.453,71.965-116.138,51.831c-1.866-0.88-3.708-2.122-5.487-3.193C184.867,284.77,180.473,281.145,176.44,276.957z
			"/>
	</g>
	<g>
		<g>
			<path style="fill:#83BAA8;" d="M66.228,363.563c-3.787-7.294-6.02-16.332-2.152-23.584c0.661-1.239,1.552-2.446,2.845-2.995
				c1.867-0.792,4.004-0.014,5.826,0.876c14.423,7.047,24.178,20.801,33.309,34.004c4.909,7.099,9.867,14.365,12.994,22.462
				c1.743,4.514,6.937,18.929-2.68,16.264c-5.839-1.618-12.993-9.259-17.851-12.912c-5.993-4.507-11.886-9.184-17.253-14.433
				C75.34,377.447,70.06,370.943,66.228,363.563z"/>
			<path style="fill:#83BAA8;" d="M91.493,350.148c-4.893-9.532-9.196-19.37-12.786-29.464c-4.137-11.633-7.257-24.791-2.161-36.037
				c1.05-2.317,2.548-4.593,4.842-5.691c2.824-1.351,6.302-0.585,8.892,1.173c2.59,1.758,4.464,4.366,6.215,6.961
				c17.796,26.368,28.694,57.348,31.328,89.05c0.423,5.098,0.633,10.278-0.403,15.287c-0.726,3.513-2.201,7.084-5.101,9.196
				c-10.934,7.966-12.354-12.512-14.802-18.61C103.081,370.96,96.92,360.72,91.493,350.148z"/>
			<path style="fill:#83BAA8;" d="M116.065,364.051c1.251-12.336,5.515-24.355,12.32-34.721c1.983-3.021,4.251-5.971,7.32-7.878
				c3.07-1.907,7.099-2.606,10.327-0.982c4.558,2.293,5.987,8.237,5.395,13.305c-1.26,10.791-8.943,19.633-12.778,29.798
				c-4.749,12.584-3.458,26.829-8.241,39.4c-1.55,4.074-4.104,8.234-8.258,9.553c-11.949,3.793-7.41-12.314-6.961-17.674
				C116.046,384.604,115.027,374.291,116.065,364.051z"/>
		</g>
		<g>
			<path style="fill:#4D867E;" d="M89.657,378.382c-2.022-4.775-3.215-10.691-1.149-15.439c0.353-0.811,0.829-1.601,1.519-1.96
				c0.997-0.519,2.138-0.009,3.111,0.573c7.702,4.613,12.911,13.617,17.787,22.259c2.622,4.647,5.269,9.403,6.939,14.704
				c0.931,2.955,3.704,12.391-1.431,10.647c-3.118-1.059-6.938-6.061-9.532-8.452c-3.2-2.95-6.347-6.012-9.213-9.448
				C94.523,387.471,91.703,383.214,89.657,378.382z"/>
			<path style="fill:#4D867E;" d="M103.148,369.601c-2.613-6.24-4.91-12.68-6.828-19.288c-2.209-7.615-3.875-16.229-1.154-23.59
				c0.561-1.517,1.361-3.007,2.586-3.725c1.508-0.884,3.365-0.383,4.748,0.768c1.383,1.151,2.384,2.858,3.319,4.557
				c9.503,17.261,15.323,37.541,16.729,58.294c0.226,3.337,0.338,6.728-0.215,10.007c-0.388,2.3-1.175,4.637-2.724,6.02
				c-5.839,5.215-6.597-8.19-7.904-12.183C109.336,383.225,106.046,376.521,103.148,369.601z"/>
			<path style="fill:#4D867E;" d="M116.269,378.702c0.668-8.075,2.945-15.944,6.579-22.729c1.059-1.978,2.27-3.909,3.909-5.157
				c1.639-1.249,3.79-1.706,5.514-0.643c2.434,1.501,3.197,5.392,2.881,8.71c-0.673,7.064-4.775,12.852-6.824,19.506
				c-2.536,8.238-1.847,17.563-4.401,25.792c-0.828,2.667-2.191,5.39-4.41,6.254c-6.381,2.483-3.957-8.061-3.717-11.57
				C116.259,392.156,115.715,385.405,116.269,378.702z"/>
		</g>
	</g>
	<g>
		<g>
			<path style="fill:#83BAA8;" d="M319.949,305.234c-2.087-7.188-2.475-15.657,2.268-21.447c0.81-0.989,1.821-1.909,3.073-2.169
				c1.808-0.376,3.579,0.698,5.048,1.817c11.63,8.856,17.9,22.874,23.71,36.288c3.124,7.213,6.261,14.583,7.615,22.371
				c0.755,4.341,2.833,18.139-5.283,14.05c-4.927-2.483-9.96-10.578-13.65-14.703c-4.552-5.09-8.985-10.314-12.845-15.956
				C325.621,319.254,322.061,312.507,319.949,305.234z"/>
			<path style="fill:#83BAA8;" d="M375.802,266.163c3.901-7.868,10.464-15.174,19.706-15.418c1.579-0.042,3.291,0.164,4.693,1.138
				c2.025,1.407,2.827,3.967,3.306,6.278c3.794,18.288-1.724,35.719-7.186,52.22c-2.937,8.872-5.99,17.886-11.078,25.551
				c-2.836,4.273-12.155,17.547-16.515,6.499c-2.647-6.708-0.8-18.114-0.928-24.994c-0.157-8.488-0.09-16.973,0.862-25.257
				C369.714,283.029,371.855,274.125,375.802,266.163z"/>
			<path style="fill:#83BAA8;" d="M343.524,300.09c-3.362-9.159-6.156-18.53-8.278-28.053c-2.445-10.974-3.801-23.215,2.056-32.812
				c1.207-1.977,2.814-3.868,5.01-4.605c2.703-0.907,5.761,0.172,7.907,2.049c2.146,1.877,3.549,4.443,4.843,6.983
				c13.15,25.812,19.554,55.025,18.407,83.971c-0.184,4.655-0.572,9.36-2.065,13.772c-1.047,3.095-2.778,6.158-5.634,7.744
				c-10.769,5.984-9.774-12.683-11.308-18.468C351.682,320.19,347.253,310.249,343.524,300.09z"/>
			<path style="fill:#83BAA8;" d="M391.776,317.424c3.652-8.925,9.483-16.95,16.844-23.181c2.145-1.816,4.487-3.516,7.197-4.262
				c2.71-0.746,5.869-0.379,7.919,1.544c2.894,2.715,2.649,7.464,1.091,11.113c-3.319,7.771-10.999,12.672-16.101,19.408
				c-6.316,8.339-8.495,19.248-14.834,27.57c-2.054,2.697-4.876,5.237-8.266,5.305c-9.748,0.194-2.812-10.818-1.295-14.717
				C387.231,332.749,388.744,324.832,391.776,317.424z"/>
		</g>
		<g>
			<path style="fill:#4D867E;" d="M337.538,324.516c-1.332-4.589-1.58-9.996,1.448-13.693c0.517-0.632,1.162-1.219,1.962-1.385
				c1.154-0.24,2.285,0.446,3.223,1.16c7.425,5.654,11.428,14.604,15.138,23.168c1.995,4.605,3.997,9.31,4.862,14.283
				c0.482,2.772,1.809,11.581-3.373,8.97c-3.146-1.585-6.359-6.753-8.715-9.387c-2.907-3.25-5.737-6.585-8.201-10.187
				C341.159,333.467,338.886,329.159,337.538,324.516z"/>
			<path style="fill:#4D867E;" d="M373.198,299.57c2.49-5.023,6.681-9.688,12.581-9.844c1.008-0.027,2.101,0.104,2.996,0.727
				c1.293,0.898,1.805,2.533,2.111,4.008c2.423,11.676-1.101,22.805-4.588,33.34c-1.875,5.665-3.824,11.419-7.073,16.313
				c-1.811,2.728-7.761,11.203-10.544,4.149c-1.69-4.283-0.511-11.565-0.592-15.958c-0.1-5.419-0.057-10.837,0.55-16.125
				C369.31,310.339,370.677,304.654,373.198,299.57z"/>
			<path style="fill:#4D867E;" d="M352.59,321.232c-2.146-5.848-3.93-11.831-5.285-17.911c-1.561-7.007-2.427-14.822,1.313-20.949
				c0.77-1.262,1.797-2.469,3.199-2.94c1.726-0.579,3.678,0.11,5.048,1.308c1.37,1.198,2.266,2.837,3.092,4.458
				c8.396,16.48,12.484,35.131,11.752,53.612c-0.118,2.972-0.365,5.976-1.318,8.793c-0.669,1.976-1.773,3.931-3.597,4.944
				c-6.876,3.82-6.24-8.097-7.22-11.791C357.798,334.064,354.971,327.718,352.59,321.232z"/>
			<path style="fill:#4D867E;" d="M383.397,332.298c2.332-5.698,6.055-10.822,10.754-14.8c1.37-1.159,2.865-2.245,4.595-2.721
				c1.73-0.476,3.747-0.242,5.056,0.986c1.848,1.733,1.691,4.765,0.696,7.095c-2.119,4.961-7.022,8.09-10.279,12.391
				c-4.033,5.324-5.423,12.289-9.471,17.602c-1.312,1.722-3.113,3.344-5.277,3.387c-6.224,0.124-1.795-6.907-0.827-9.396
				C380.494,342.083,381.461,337.029,383.397,332.298z"/>
		</g>
	</g>
	<g>
		<ellipse style="fill:#74A7CB;" cx="235.553" cy="441.521" rx="44.837" ry="11.597"/>
		<g>
			<path style="fill:#222859;" d="M214.259,91.319c-29.918,6.471-27.213,24.951-26.381,32.099c0.832,7.148-8.087,13.47-1.551,22.619
				c6.535,9.15-16.91,17.35,1.041,41.621c17.951,24.271,62.979,10.022,68.197-4.004c5.218-14.027,4.32-25.179-0.561-31.151
				c-4.881-5.972,3.829-18.306-2.937-27.242C245.3,116.325,243.86,84.917,214.259,91.319z"/>
			<path style="fill:#ED6C6B;" d="M214.699,168.612c-23.637,4.604-27.421,7.026-34.54,34.738
				c-7.119,27.712-9.756,51.131,7.646,60.499c17.402,9.368,67.762,3.903,76.463-6.05c8.701-9.953-1.846-57.962-1.846-57.962
				s-4.482-23.419-10.019-28.298C246.866,166.661,229.728,165.685,214.699,168.612z"/>
			<path style="fill:#697BAE;" d="M243.79,429.924c-1.253,3.121-2.506,10.236,0.114,13.232c2.62,2.996,22.671,3.995,28.139,2.622
				c5.468-1.373,4.899-9.612,1.139-11.984c-3.759-2.372-15.266-3.121-15.266-3.121L243.79,429.924z"/>
			<path style="fill:#EBBA9D;" d="M240.791,416.757c0.462,7.003,2.079,14.005,3.233,17.156c1.155,3.151,14.088,2.918,15.358,0.117
				c1.27-2.801,3.233-18.674,3.233-18.674L240.791,416.757z"/>
			<path style="fill:#EB977D;" d="M241.294,421.688c6.928-1.014,13.877-1.89,20.838-2.645c0.296-2.173,0.483-3.687,0.483-3.687
				l-21.825,1.401C240.9,418.418,241.076,420.078,241.294,421.688z"/>
			<path style="fill:#697BAE;" d="M201.152,429.924c-1.253,3.121-2.506,10.236,0.114,13.232c2.62,2.996,22.671,3.995,28.139,2.622
				c5.468-1.373,4.899-9.612,1.139-11.984c-3.759-2.372-15.265-3.121-15.265-3.121L201.152,429.924z"/>
			<path style="fill:#EBBA9D;" d="M198.152,416.757c0.462,7.003,2.079,14.005,3.233,17.156c1.155,3.151,14.088,2.918,15.358,0.117
				c1.27-2.801,3.233-18.674,3.233-18.674L198.152,416.757z"/>
			<path style="fill:#EB977D;" d="M198.855,423.075c6.82-0.812,13.634-1.668,20.44-2.593c0.409-2.916,0.682-5.126,0.682-5.126
				l-21.825,1.401C198.294,418.9,198.544,421.042,198.855,423.075z"/>
			<path style="fill:#697BAE;" d="M192.2,273.319c0,0-0.467,122.313,3.735,144.955h26.844l13.072-105.507l3.268,104.106h24.743
				c0,0,13.538-105.507,7.936-145.188L192.2,273.319z"/>
			<path style="fill:#222859;" d="M271.797,271.685l-79.597,1.634c0,0-0.011,2.931-0.015,7.959
				c7.944,2.943,23.216,5.737,42.808,3.945c22.264-2.036,34.459-8.572,37.209-10.207
				C272.08,273.864,271.947,272.746,271.797,271.685z"/>
			<g>
				<path style="fill:#222859;" d="M318.803,145.189c-0.226-0.005-0.447-0.113-0.59-0.312l-39.429-55.098
					c-0.239-0.335-0.162-0.8,0.173-1.04c0.335-0.238,0.8-0.162,1.04,0.173l39.429,55.099c0.239,0.335,0.162,0.801-0.173,1.04
					C319.117,145.148,318.958,145.193,318.803,145.189z"/>
			</g>
			
				<ellipse transform="matrix(0.1813 -0.9834 0.9834 0.1813 132.4742 390.5753)" style="fill:#9DC9DD;" cx="300.82" cy="115.722" rx="30.805" ry="30.805"/>
			<g>
				<path style="fill:#222859;" d="M320.825,144.598c-15.922,11.031-37.849,7.051-48.88-8.871
					c-11.031-15.922-7.051-37.85,8.871-48.88c0.339-0.235,0.803-0.15,1.038,0.188c0.235,0.339,0.15,0.803-0.188,1.037
					c-15.246,10.562-19.057,31.559-8.494,46.805c10.562,15.246,31.559,19.057,46.806,8.495c0.339-0.235,0.803-0.15,1.037,0.188
					C321.248,143.9,321.164,144.363,320.825,144.598z"/>
			</g>
			<path style="fill:#83BAA8;" d="M309.009,131.974c-1.83-0.557-3.752-0.831-5.506-1.593c-2.878-1.25-5.603-3.836-8.651-3.095
				c-1.337,0.325-2.429,1.259-3.635,1.921c-1.206,0.663-2.785,1.029-3.903,0.226c-1.139-0.818-1.273-2.505-0.844-3.84
				c0.43-1.335,1.288-2.492,1.808-3.794c0.731-1.832,0.75-3.937,0.052-5.782c-0.388-1.025-0.993-1.997-1.076-3.09
				c-0.148-1.95,1.357-3.568,2.441-5.196c2.004-3.011,2.701-7.089,1.008-10.286c-1.791-3.383-5.575-4.899-9.487-5.476
				c-12.239,10.08-14.91,28.028-5.718,41.296c4.946,7.14,12.37,11.534,20.313,12.844c-0.015-0.074-0.03-0.148-0.041-0.222
				c-0.261-1.767,0.935-3.503,2.489-4.382c1.555-0.879,3.399-1.067,5.184-1.131c1.9-0.069,3.803-0.02,5.697,0.146
				c1.206,0.106,2.502,0.242,3.557-0.353c1.667-0.938,1.932-3.413,0.957-5.058C312.679,133.465,310.839,132.532,309.009,131.974z"/>
			<path style="fill:#83BAA8;" d="M326.142,98.18c-6.669-9.626-17.84-14.276-28.716-13.08c0.005,2.028,0.215,4.055,0.635,6.039
				c0.352,1.661,0.946,3.429,2.367,4.357c1.694,1.106,3.917,0.641,5.927,0.861c2.72,0.297,5.104,1.882,7.366,3.42
				c3.155,2.146,6.635,4.843,6.815,8.654c0.135,2.857-1.675,5.4-2.511,8.135c-0.407,1.334-0.348,3.173,0.958,3.661
				c0.721,0.269,1.52-0.02,2.224-0.33c1.398-0.615,2.783-1.332,4.294-1.553c1.511-0.221,3.222,0.163,4.137,1.385
				c0.678,0.906,0.805,2.083,1.133,3.174C332.741,114.676,331.338,105.68,326.142,98.18z"/>
			<polygon style="fill:#222859;" points="284.89,72.534 285.376,70.565 317.62,70.66 342.218,91.707 341.748,92.993 			"/>
			<polygon style="fill:#697BAE;" points="284.89,72.534 317.131,72.74 341.748,92.993 310.417,90.884 			"/>
			<path style="fill:#EBBA9D;" d="M299.027,177.514c1.007-3.264,4.625-4.893,6.458-5.952c1.833-1.059,9.698-3.661,11.204-5.444
				c1.507-1.782,0.145-3.546,0.145-3.546l-10.731,0.546l-11.717,4.603L299.027,177.514z"/>
			<path style="fill:#697BAE;" d="M302.701,150.112l-20.319,12.34c0,0,5.749,5.716,20.759,5.549
				c15.01-0.167,20.39-6.007,20.39-6.007L302.701,150.112z"/>
			<path style="fill:#EBBA9D;" d="M293.949,197.837c0,0-7.459-4.675-14.734-7.158c0,0,6.571-16.538,8.14-20.547
				c1.51-3.859,4.307-10.807,6.572-12.763c2.265-1.956,2.897,0.014,2.288,2.229c-0.609,2.215-0.526,4.491-0.526,4.491
				s0.89,1.532,1.592,3.287c0.702,1.755,0.344,4.112,0.344,4.112l1.402,6.025L293.949,197.837z"/>
			<path style="fill:#697BAE;" d="M294.024,75.168l-3.563,11.142c0,0,5.944,4.651,16.968,8.542
				c11.024,3.89,19.617,3.541,19.617,3.541l3.89-11.024c0,0-6.019-4.101-17.37-8.109C302.214,75.252,294.024,75.168,294.024,75.168z
				"/>
			<path style="fill:#222859;" d="M294.024,75.168l-1.051,3.285c13.665-0.3,33.918,7.604,37.862,9.2l0.1-0.285
				c0,0-6.019-4.101-17.37-8.109C302.214,75.252,294.024,75.168,294.024,75.168z"/>
			<path style="fill:#FFCE5E;" d="M327.429,77.981c-0.179-0.304-0.638-0.257-0.747,0.08c-0.419,1.292-0.225,2.759-0.324,4.101
				c-0.109,1.486-0.325,2.967-0.581,4.435c-0.501,2.873-1.103,5.727-1.615,8.598c-0.011,0.061-0.014,0.12-0.014,0.177
				c-0.309,0.087-0.586,0.274-0.778,0.555c-0.11,0.161-0.177,0.351-0.247,0.532c-0.069,0.177-0.128,0.354-0.172,0.539
				c-0.058,0.243-0.097,0.488-0.108,0.734c-0.009,0.046-0.02,0.091-0.026,0.138c-0.032,0.249,0.025,0.511,0.14,0.741
				c0.09,0.269,0.241,0.526,0.434,0.744c-0.067,0.19-0.138,0.379-0.218,0.565c-0.019,0.043-0.019,0.044,0,0.003
				c-0.02,0.043-0.04,0.086-0.06,0.129c-0.041,0.086-0.083,0.171-0.126,0.256c-0.087,0.169-0.179,0.336-0.276,0.5
				c-0.203,0.342-0.519,0.7-0.615,1.089c-0.068,0.273,0.008,0.55,0.23,0.73c0.199,0.161,0.537,0.225,0.764,0.072
				c0.262-0.177,0.452-0.436,0.613-0.712c-0.009,0.166-0.021,0.333-0.025,0.499c-0.01,0.5-0.024,1.098,0.421,1.419
				c0.142,0.102,0.385,0.108,0.531,0.013c0.459-0.299,0.474-0.897,0.487-1.397c0.011-0.428-0.002-0.859-0.004-1.288
				c-0.001-0.322-0.012-0.644-0.023-0.965c0.045,0.126,0.093,0.252,0.134,0.38c0.097,0.304,0.196,0.614,0.318,0.909
				c0.027,0.066,0.056,0.131,0.083,0.197c0.013,0.033,0.027,0.066,0.04,0.099c0.004,0.01,0.044,0.111,0.021,0.053
				c-0.023-0.057,0.05,0.123,0.062,0.143c0.018,0.03,0.041,0.058,0.062,0.086c0.078,0.107,0.158,0.195,0.271,0.265
				c0.287,0.177,0.577,0.007,0.699-0.266c0.145-0.323,0.003-0.709-0.095-1.027c-0.095-0.309-0.243-0.622-0.395-0.907
				c-0.129-0.241-0.264-0.481-0.409-0.714c0.024-0.023,0.055-0.037,0.078-0.062c0.239-0.261,0.42-0.55,0.569-0.869
				c0.338-0.723,0.449-1.614-0.044-2.301c-0.164-0.229-0.37-0.433-0.611-0.583c0.581-2.998,1.143-6.007,1.618-9.023
				c0.233-1.475,0.418-2.954,0.48-4.446C328.031,80.825,328.15,79.211,327.429,77.981z"/>
			<path style="fill:#EB977D;" d="M295.226,192.725c-5.168-1.193-10.375-2.212-15.611-3.051c-0.252,0.634-0.399,1.005-0.399,1.005
				c7.275,2.482,14.734,7.158,14.734,7.158L295.226,192.725z"/>
			<path style="fill:#FFFFFF;" d="M207.838,163.125c-7.702,3.676-19.684,10.056-24.508,21.26
				c-4.824,11.204-6.069,42.327-1.867,52.442c4.202,10.115,14.316,7.781,14.316,7.781s-2.879,17.896-5.68,30.345
				c0,0,42.95,17.273,83.798-1.634c0,0-5.446-33.068-7.469-46.918c0,0,9.648,6.069,15.561,3.89
				c5.913-2.179,14.316-34.858,14.316-34.858s-9.804-3.268-17.74-5.602l-4.202,5.913c0,0-7.625-23.809-11.827-29.255
				s-13.383-9.026-19.763-9.337c-6.38-0.311-22.875,3.735-22.875,3.735L207.838,163.125z"/>
			<polygon style="fill:#D5F2F9;" points="242.622,176.401 244.781,181.267 209.44,191.365 209.561,185.89 			"/>
			
				<rect x="214.704" y="184.473" transform="matrix(0.9563 -0.2924 0.2924 0.9563 -52.0782 77.9298)" style="fill:#697BAE;" width="39.917" height="57.422"/>
			<path style="fill:#EBBA9D;" d="M211.574,148.905c0,0,1.556,4.707,0.934,7.82c-0.622,3.112-4.67,6.4-4.67,6.4
				s11.75,5.232,21.865,2.742c10.115-2.49,13.538-8.87,13.072-8.714c-0.467,0.156-4.513-0.778-6.691-3.112s-3.579-9.337-3.579-9.337
				S211.107,148.905,211.574,148.905z"/>
			<path style="fill:#EBBA9D;" d="M210.778,235.648c0,0-7.438-10.325-6.083-16.424c0,0,15.694-5.839,17.275-6.448
				c1.581-0.608,6.934-7.056,8.638-8.394c1.703-1.338,3.163,0.608,2.92,1.581c-0.243,0.973-1.703,4.501-1.703,4.501
				s5.475-5.84,7.908-7.543c2.433-1.703,3.406-0.122,3.042,1.338c0,0,3.65-1.947,3.528,1.825c0,0,1.825,1.095,0.73,3.528
				c0,0,1.338,0.973,0.365,3.65c-0.973,2.676-10.706,7.908-13.261,9.733C231.581,224.82,210.778,235.648,210.778,235.648z"/>
			<path style="fill:#697BAE;" d="M207.181,191.564c-0.905-3.362,0.555-5.43,4.57-6.647c4.015-1.217,29.684-9.246,30.779-9.246
				c1.095,0,0.73,1.095-0.243,1.338c-0.973,0.243-29.198,8.516-30.536,9.246c-1.338,0.73-1.946,2.798-0.973,2.92
				c0.973,0.122,31.874-9.428,32.908-9.793c1.034-0.365,1.572-0.135,1.668,0.511c0.096,0.645-5.196,4.721-5.196,4.721l-19.708,3.954
				L207.181,191.564z"/>
			<path style="fill:#EB977D;" d="M232.504,144.704c0,0-21.397,4.202-20.93,4.202c0,0,1.556,4.707,0.934,7.82
				c-0.068,0.339-0.182,0.68-0.322,1.019c1.053,0.281,2.164,0.403,3.253,0.445c6.927,0.268,13.906-2.429,18.899-7.229
				C233.187,148.107,232.504,144.704,232.504,144.704z"/>
			<path style="fill:#EBBA9D;" d="M240.85,119.247c4.005,11.517,0.34,33.424-16.644,34.729
				c-16.742,1.287-24.152-14.636-24.152-14.636s-5.15,2.574-6.305-2.783c-0.94-4.362,2.65-6.116,2.65-6.116s7.88-2.321,7.966-6.995
				c0.087-4.674,8.766-1.448,8.929-7.061c0.163-5.613,10.672-6.11,10.883-11.105c0,0,6.767,4.925,7.743,7.962
				C233.678,118.71,240.85,119.247,240.85,119.247z"/>
			<path style="fill:#EB977D;" d="M198.943,134.533c-0.406-0.387-0.902-0.696-1.445-0.85c-0.549-0.156-1.355-0.183-1.797,0.23
				c-0.235,0.22-0.231,0.673,0.075,0.839c0.137,0.074,0.241,0.114,0.394,0.143c-0.034-0.006-0.117-0.024-0.037-0.006
				c0.034,0.008,0.069,0.015,0.103,0.023c0.034,0.009,0.068,0.021,0.102,0.029c0.03,0.005,0.059,0.01,0.089,0.016
				c-0.005-0.001-0.005,0,0.018,0.004c0.063,0.016,0.128,0.029,0.191,0.048c0.142,0.041,0.277,0.099,0.416,0.151
				c0.028,0.01,0.055,0.021,0.083,0.032c0.008,0.003,0.038,0.017,0.059,0.026c0.033,0.017,0.064,0.035,0.096,0.053
				c0.058,0.033,0.114,0.068,0.169,0.105c0.025,0.017,0.064,0.039,0.101,0.064c-0.134,0.149-0.242,0.324-0.302,0.499
				c-0.179,0.528-0.096,1.203,0.306,1.612c0.221,0.224,0.59,0.386,0.908,0.279c0.393-0.132,0.717-0.341,0.944-0.697
				c0.169-0.265,0.274-0.597,0.278-0.912C199.704,135.58,199.4,134.969,198.943,134.533z"/>
			<path style="fill:#EB977D;" d="M231.92,113.244c-0.976-3.037-7.743-7.962-7.743-7.962c-0.21,4.995-10.72,5.491-10.883,11.105
				c-0.163,5.614-8.843,2.387-8.929,7.061c-0.063,3.389-4.214,5.535-6.496,6.462c2.712-0.136,6.966-0.506,7.812-2.916
				c1.001-2.852,0.413-4.876,2.531-5.015c2.118-0.14,6.123-0.205,6.876-2.399c0.753-2.194,1.199-5.067,3.107-5.549
				c1.909-0.481,6.029-1.664,6.753-4.961c0,0,3.407,1.023,3.968,3.713c0.562,2.69,6.837,7.706,11.933,6.465
				C240.85,119.247,233.678,118.71,231.92,113.244z"/>
			<path style="fill:#EB977D;" d="M205.065,219.086c-0.237,0.088-0.37,0.138-0.37,0.138c-1.355,6.099,6.083,16.424,6.083,16.424
				s1.517-0.79,3.773-1.973C210.672,229.329,207.459,224.397,205.065,219.086z"/>
			<path style="fill:#EB977D;" d="M297.655,168.676c-0.006-0.495-0.05-0.995-0.133-1.483c-0.081-0.479-0.217-0.949-0.422-1.39
				c-0.233-0.502-0.596-0.914-0.865-1.394c-1.233-2.203,1.058-4.558,0.235-6.798c-0.062-0.168-0.298-0.14-0.311,0.042
				c-0.093,1.27-0.431,2.414-0.734,3.643c-0.236,0.958-0.375,1.99-0.023,2.938c0.366,0.987,1.104,1.711,1.327,2.773
				c0.116,0.551,0.131,1.108,0.143,1.669c0.009,0.416-0.049,0.819,0.229,1.148c0.074,0.088,0.235,0.082,0.31,0
				C297.696,169.513,297.66,169.081,297.655,168.676z"/>
			<path style="fill:#EB977D;" d="M242.698,204.316c-0.887,0.642-1.499,1.487-2.174,2.335c-0.669,0.841-1.394,1.636-2.169,2.381
				c-0.771,0.741-1.577,1.43-2.423,2.084c-0.844,0.653-1.749,1.219-2.535,1.943c-0.09,0.083,0.004,0.233,0.117,0.202
				c1.033-0.284,1.939-0.861,2.812-1.47c0.862-0.601,1.684-1.286,2.445-2.01c0.778-0.74,1.501-1.54,2.169-2.38
				c0.699-0.878,1.349-1.803,2.105-2.634C243.252,204.538,242.975,204.115,242.698,204.316z"/>
			<path style="fill:#EB977D;" d="M245.677,206.279c-0.632,0.86-1.214,1.746-1.913,2.556c-0.704,0.815-1.481,1.565-2.296,2.267
				c-0.821,0.707-1.682,1.367-2.557,2.004c-0.431,0.314-0.87,0.618-1.305,0.928c-0.376,0.269-0.881,0.562-1.126,0.962
				c-0.097,0.159,0.063,0.315,0.222,0.288c0.487-0.081,0.973-0.471,1.379-0.74c0.465-0.309,0.926-0.624,1.383-0.945
				c0.918-0.644,1.814-1.321,2.667-2.05c1.611-1.376,3.307-3.035,4.107-5.036C246.374,206.167,245.865,206.023,245.677,206.279z"/>
			<path style="fill:#EB977D;" d="M246.256,210.555c-0.422,0.695-0.778,1.408-1.287,2.048c-0.501,0.63-1.071,1.215-1.67,1.753
				c-0.654,0.587-1.352,1.123-2.071,1.629c-0.365,0.257-0.739,0.501-1.108,0.753c-0.316,0.216-0.688,0.458-0.908,0.776
				c-0.032,0.046,0.01,0.127,0.068,0.119c0.401-0.051,0.812-0.283,1.161-0.479c0.388-0.218,0.771-0.447,1.151-0.68
				c0.798-0.49,1.575-1.017,2.301-1.611c0.659-0.54,1.261-1.134,1.788-1.804c0.519-0.66,1.04-1.394,1.279-2.209
				C247.084,210.428,246.481,210.185,246.256,210.555z"/>
			<path style="fill:#222859;" d="M213.851,123.156c-0.446-0.788-1.361-0.971-2.202-0.928c-0.771,0.039-1.522,0.215-2.207,0.582
				c-0.603,0.323-1.14,0.778-1.546,1.327c-0.172,0.233-0.314,0.483-0.439,0.744c-0.184,0.386-0.326,0.947-0.117,1.343
				c0.179,0.338,0.561,0.405,0.89,0.271c0.187-0.076,0.299-0.237,0.417-0.391c0.025-0.032,0.049-0.064,0.074-0.095
				c0.025-0.028,0.116-0.135,0.107-0.124c0.096-0.115,0.192-0.247,0.275-0.373c0.008-0.013,0.004-0.008,0.006-0.013
				c0.009-0.01,0.008-0.007,0.023-0.024c0.035-0.039,0.07-0.077,0.106-0.115c0.181-0.189,0.377-0.364,0.579-0.529
				c0.02-0.016,0.019-0.015,0.027-0.021c0.043-0.029,0.086-0.057,0.13-0.085c0.111-0.069,0.226-0.132,0.344-0.189
				c0.051-0.025,0.102-0.048,0.154-0.071c0.022-0.01,0.046-0.019,0.067-0.026c0.131-0.042,0.261-0.082,0.395-0.112
				c0.127-0.029,0.256-0.044,0.385-0.067c0.008-0.001,0.003-0.001,0.007-0.002c0.011,0,0.008,0.001,0.027,0.001
				c0.072-0.001,0.144-0.005,0.216-0.005c0.278,0,0.544,0.047,0.819,0.078c0.208,0.023,0.39,0.017,0.601-0.003
				c-0.224,0.021,0.099-0.006,0.152-0.014c0.075-0.012,0.138-0.035,0.211-0.06C213.801,124.105,214.112,123.618,213.851,123.156z"/>
			<path style="fill:#222859;" d="M229.986,117.23c-0.149-0.957-1.236-1.16-2.042-1.155c-0.732,0.004-1.424,0.165-2.095,0.448
				c-0.588,0.248-1.14,0.637-1.584,1.094c-0.516,0.531-1.164,1.346-0.941,2.135c0.132,0.466,0.635,0.718,1.079,0.489
				c0.193-0.099,0.345-0.217,0.476-0.39c0.044-0.058,0.082-0.121,0.126-0.18c0.006-0.008,0.026-0.035,0.046-0.061
				c-0.025,0.036,0.144-0.175,0.184-0.227c0.037-0.048,0.075-0.097,0.11-0.146c0.002-0.003,0,0,0.002-0.003
				c0.004-0.005,0.002-0.002,0.008-0.008c0.05-0.054,0.099-0.108,0.151-0.16c0.086-0.087,0.176-0.17,0.269-0.249
				c0.047-0.04,0.094-0.078,0.143-0.116c0.018-0.014,0.019-0.015,0.031-0.023c0.207-0.137,0.42-0.264,0.644-0.371
				c0.055-0.027,0.111-0.052,0.167-0.076c0.013-0.006,0.068-0.027,0.104-0.041c0.031-0.011,0.064-0.022,0.074-0.025
				c0.058-0.018,0.117-0.036,0.176-0.052c0.13-0.035,0.261-0.064,0.393-0.087c0.059-0.01,0.12-0.016,0.179-0.026c0,0,0,0,0.001,0
				c0.122-0.005,0.244-0.009,0.366-0.006c0.069,0.002,0.206-0.002,0.298,0.018c0.034,0.007,0.068,0.015,0.101,0.024
				c0.059,0.016,0.116,0.035,0.175,0.049c0.056,0.014,0.114,0.026,0.171,0.038c0.051,0.01,0.456,0.094,0.189,0.03
				C229.589,118.298,230.081,117.84,229.986,117.23z"/>
			<path style="fill:#222859;" d="M215.566,130.574c-0.143-1.532-1.012-3.109-2.247-3.421c-1.17-0.295-2.218,0.607-2.422,1.723
				c-0.145,0.791-0.074,1.636,0.108,2.414c0.204,0.871,0.727,1.639,1.505,2.092c0.496,0.289,1.175,0.387,1.713,0.159
				C215.306,133.081,215.685,131.843,215.566,130.574z"/>
			<path style="fill:#222859;" d="M231.908,125.347c-0.142-1.532-1.01-3.11-2.244-3.423c-1.17-0.296-2.219,0.605-2.423,1.721
				c-0.145,0.791-0.075,1.636,0.107,2.414c0.204,0.871,0.726,1.64,1.503,2.094c0.495,0.289,1.175,0.388,1.713,0.16
				C231.646,127.854,232.026,126.617,231.908,125.347z"/>
			<path style="fill:#EB977D;" d="M225.524,132.198c-0.08-0.254-0.408-0.493-0.675-0.306c-0.053,0.037-0.112,0.071-0.16,0.114
				c-0.091,0.108-0.113,0.135-0.068,0.081c0.026-0.031,0.023-0.028-0.009,0.009c-0.052,0.053-0.105,0.104-0.158,0.157
				c-0.046,0.04-0.087,0.087-0.12,0.139c0.056-0.066,0.069-0.081,0.038-0.045c-0.025,0.025-0.047,0.052-0.071,0.077
				c-0.059,0.061-0.122,0.12-0.187,0.174c-0.122,0.103-0.248,0.204-0.368,0.31c-0.032,0.02-0.064,0.041-0.096,0.061
				c-0.075,0.045-0.152,0.086-0.231,0.124c-0.072,0.035-0.143,0.071-0.215,0.104c-0.032,0.015-0.066,0.028-0.098,0.043
				c-0.164,0.051-0.326,0.09-0.495,0.119c-0.076,0.013-0.151,0.033-0.228,0.047c-0.034,0.006-0.068,0.01-0.103,0.016
				c-0.005,0.001-0.002,0.001-0.006,0.002c-0.003,0-0.001,0-0.004,0c-0.118,0.003-0.234,0.013-0.351,0.032
				c-0.015,0.002-0.065,0.009-0.071,0.011c-0.057,0.006-0.148,0.015-0.086,0.009c-0.158,0.014-0.294,0.07-0.364,0.225
				c-0.063,0.141-0.045,0.31,0.064,0.427c0.654,0.705,1.792,0.66,2.608,0.276c0.412-0.194,0.835-0.494,1.096-0.872
				c0.124-0.18,0.252-0.396,0.318-0.603C225.547,132.724,225.591,132.408,225.524,132.198z"/>
			<path style="fill:#FFFFFF;" d="M214.932,127.284c-0.041-0.173-0.122-0.325-0.242-0.455l-0.198-0.166
				c-0.154-0.097-0.322-0.15-0.504-0.158c-0.139-0.011-0.27,0.013-0.392,0.072c-0.127,0.036-0.238,0.101-0.333,0.196
				c-0.102,0.088-0.176,0.193-0.221,0.317c-0.068,0.118-0.102,0.246-0.102,0.385c0.008,0.09,0.017,0.18,0.026,0.27
				c0.041,0.173,0.122,0.325,0.242,0.456l0.198,0.166c0.154,0.098,0.322,0.15,0.504,0.158c0.139,0.011,0.27-0.013,0.392-0.072
				c0.127-0.036,0.238-0.101,0.333-0.196c0.102-0.088,0.176-0.193,0.221-0.317c0.068-0.118,0.102-0.246,0.102-0.386
				C214.949,127.464,214.94,127.374,214.932,127.284z"/>
			<path style="fill:#FFFFFF;" d="M231.353,121.796c-0.041-0.173-0.122-0.325-0.242-0.456l-0.198-0.166
				c-0.154-0.097-0.322-0.15-0.504-0.158c-0.139-0.011-0.27,0.013-0.392,0.072c-0.127,0.036-0.238,0.101-0.333,0.196
				c-0.102,0.088-0.176,0.193-0.221,0.317c-0.068,0.118-0.102,0.246-0.102,0.385c0.008,0.09,0.017,0.18,0.026,0.27
				c0.041,0.173,0.122,0.325,0.242,0.456l0.198,0.166c0.154,0.098,0.322,0.15,0.504,0.158c0.139,0.011,0.27-0.013,0.392-0.072
				c0.127-0.036,0.238-0.101,0.333-0.196c0.102-0.088,0.176-0.193,0.221-0.317c0.068-0.118,0.102-0.246,0.102-0.385
				C231.371,121.976,231.362,121.886,231.353,121.796z"/>
			<path style="fill:#222859;" d="M217.485,139.538c0.506-0.999,12.814-5.499,13.98-5.009s1.396,7.076-4.008,9.377
				C222.052,146.208,216.667,141.154,217.485,139.538z"/>
			<path style="fill:#ED6C6B;" d="M229.327,139.962c-1.77-0.475-3.689-0.088-5.328,0.734c-1.339,0.672-2.515,1.617-3.619,2.636
				c1.901,1.089,4.485,1.677,7.076,0.574c1.702-0.725,2.845-1.875,3.576-3.126C230.516,140.411,229.936,140.126,229.327,139.962z"/>
			<path style="fill:#FFFFFF;" d="M231.465,134.529c-1.165-0.49-13.474,4.009-13.98,5.009c-0.148,0.292-0.09,0.697,0.13,1.15
				c0.147,0.036,0.297,0.059,0.447,0.067c0.639,0.033,1.268-0.15,1.882-0.332c1.815-0.536,3.631-1.073,5.446-1.609
				c1.876-0.554,3.782-1.122,5.413-2.201c0.441-0.292,0.858-0.632,1.24-1.006C231.927,135.031,231.718,134.636,231.465,134.529z"/>
			<g>
				<path style="fill:#ED6C6B;" d="M282.426,123.211c0,0-7.762-10.205,0-10.205C290.188,113.006,282.426,123.211,282.426,123.211z"
					/>
				<path style="fill:#222859;" d="M282.491,114.67c-2.019,0-2.023,3.138,0,3.138C284.51,117.808,284.514,114.67,282.491,114.67z"/>
			</g>
			<g>
				<path style="fill:#ED6C6B;" d="M319.759,101.123c0,0-6.582-8.655,0-8.655C326.341,92.469,319.759,101.123,319.759,101.123z"/>
				<path style="fill:#222859;" d="M319.815,93.88c-1.712,0-1.715,2.661,0,2.661C321.527,96.541,321.53,93.88,319.815,93.88z"/>
			</g>
			<g>
				<g>
					<path style="fill:#FFFFFF;" d="M283.794,125.259c-0.042,0-0.083-0.01-0.121-0.032c-0.541-0.313-0.822-0.562-0.834-0.573
						c-0.099-0.089-0.108-0.242-0.019-0.341c0.09-0.1,0.243-0.106,0.341-0.02c0.003,0.002,0.26,0.229,0.754,0.514
						c0.116,0.067,0.155,0.215,0.089,0.33C283.959,125.216,283.878,125.259,283.794,125.259z"/>
				</g>
				<g>
					<path style="fill:#FFFFFF;" d="M289.573,126.493c-0.127,0-0.233-0.099-0.241-0.227c-0.008-0.133,0.094-0.247,0.227-0.256
						c0.631-0.037,1.285-0.125,1.943-0.262c0.137-0.025,0.259,0.057,0.286,0.188c0.027,0.13-0.057,0.258-0.188,0.286
						c-0.68,0.141-1.358,0.232-2.012,0.272C289.583,126.493,289.578,126.493,289.573,126.493z M287.578,126.449
						c-0.009,0-0.017,0-0.026-0.001c-0.693-0.076-1.365-0.213-1.999-0.41c-0.127-0.04-0.198-0.175-0.159-0.303
						c0.041-0.127,0.175-0.194,0.303-0.16c0.605,0.188,1.246,0.319,1.909,0.391c0.132,0.015,0.228,0.134,0.214,0.267
						C287.804,126.357,287.699,126.449,287.578,126.449z M293.476,125.701c-0.101,0-0.195-0.063-0.229-0.164
						c-0.043-0.127,0.025-0.264,0.152-0.307c0.596-0.2,1.213-0.443,1.835-0.724c0.122-0.057,0.263-0.002,0.319,0.121
						c0.056,0.121,0.001,0.264-0.121,0.319c-0.636,0.288-1.268,0.538-1.879,0.743C293.527,125.698,293.502,125.701,293.476,125.701z
						 M297.006,123.9c-0.069,0-0.137-0.029-0.185-0.086c-0.086-0.102-0.073-0.255,0.029-0.341c0.463-0.39,0.906-0.847,1.353-1.398
						c0.085-0.106,0.238-0.118,0.34-0.036c0.104,0.084,0.12,0.237,0.036,0.34c-0.467,0.576-0.931,1.055-1.417,1.464
						C297.116,123.882,297.061,123.9,297.006,123.9z M299.549,120.844c-0.044,0-0.09-0.012-0.129-0.038
						c-0.113-0.072-0.146-0.221-0.075-0.333c0.322-0.506,0.65-1.066,1.003-1.711c0.065-0.117,0.212-0.159,0.328-0.096
						c0.117,0.064,0.159,0.211,0.096,0.328c-0.359,0.655-0.693,1.224-1.02,1.738C299.707,120.804,299.629,120.844,299.549,120.844z
						 M301.486,117.346c-0.037,0-0.074-0.008-0.109-0.026c-0.119-0.06-0.166-0.205-0.106-0.325c0.276-0.547,0.553-1.106,0.831-1.672
						l0.058-0.116c0.059-0.121,0.208-0.169,0.324-0.11c0.12,0.059,0.169,0.205,0.11,0.324l-0.059,0.117
						c-0.279,0.567-0.556,1.127-0.834,1.677C301.659,117.298,301.574,117.346,301.486,117.346z M303.269,113.766
						c-0.037,0-0.075-0.008-0.109-0.026c-0.119-0.059-0.166-0.206-0.106-0.325c0.301-0.594,0.609-1.189,0.929-1.778
						c0.063-0.118,0.21-0.16,0.327-0.097c0.117,0.064,0.16,0.21,0.097,0.327c-0.318,0.585-0.625,1.176-0.924,1.766
						C303.441,113.718,303.356,113.766,303.269,113.766z M305.192,110.261c-0.043,0-0.087-0.011-0.125-0.035
						c-0.114-0.07-0.15-0.218-0.081-0.332c0.363-0.596,0.735-1.163,1.105-1.684c0.077-0.109,0.227-0.136,0.337-0.058
						c0.109,0.077,0.135,0.228,0.058,0.337c-0.363,0.512-0.729,1.069-1.086,1.656C305.353,110.219,305.273,110.261,305.192,110.261z
						 M307.517,107.015c-0.056,0-0.112-0.019-0.158-0.058c-0.101-0.087-0.112-0.24-0.025-0.341c0.456-0.528,0.93-1.017,1.41-1.454
						c0.099-0.09,0.251-0.082,0.342,0.017c0.09,0.099,0.082,0.252-0.017,0.341c-0.466,0.423-0.927,0.897-1.369,1.41
						C307.652,106.987,307.585,107.015,307.517,107.015z M310.469,104.351c-0.077,0-0.154-0.038-0.2-0.107
						c-0.075-0.11-0.045-0.26,0.065-0.335c0.565-0.381,1.159-0.717,1.767-0.997c0.117-0.058,0.264-0.004,0.32,0.118
						c0.057,0.121,0.004,0.264-0.118,0.32c-0.583,0.27-1.155,0.592-1.699,0.96C310.563,104.338,310.515,104.351,310.469,104.351z
						 M314.068,102.688c-0.106,0-0.203-0.07-0.233-0.177c-0.035-0.128,0.04-0.261,0.169-0.297c0.641-0.177,1.309-0.308,1.986-0.391
						c0.14-0.014,0.253,0.077,0.269,0.21c0.016,0.133-0.078,0.253-0.21,0.269c-0.654,0.079-1.298,0.207-1.916,0.377
						C314.111,102.686,314.089,102.688,314.068,102.688z"/>
				</g>
				<g>
					<path style="fill:#FFFFFF;" d="M319.026,102.229c-0.005,0-0.01,0-0.015-0.001c-0.325-0.02-0.643-0.032-0.953-0.035
						c-0.134-0.001-0.241-0.11-0.24-0.243c0.001-0.133,0.109-0.24,0.241-0.24c0.001,0,0.002,0,0.002,0
						c0.32,0.003,0.645,0.015,0.979,0.037c0.133,0.007,0.234,0.123,0.225,0.256C319.259,102.131,319.153,102.229,319.026,102.229z"
						/>
				</g>
			</g>
			<path style="fill:#FFFFFF;" d="M224.697,183.202c-1.904,0.268-3.78,0.867-5.624,1.402c-1.803,0.523-3.609,1.025-5.293,1.853
				c-0.074,0.037-0.018,0.135,0.052,0.124c1.876-0.3,3.677-0.903,5.501-1.436c1.812-0.529,3.683-0.97,5.439-1.667
				C224.947,183.409,224.88,183.176,224.697,183.202z"/>
			<path style="fill:#FFFFFF;" d="M238.125,179.118c-0.928,0.003-1.938,0.463-2.818,0.734c-0.948,0.292-1.896,0.581-2.843,0.874
				c-0.947,0.293-1.897,0.58-2.845,0.871c-0.865,0.265-1.963,0.45-2.703,0.985c-0.013,0.009-0.007,0.026,0.008,0.028
				c0.906,0.1,1.96-0.292,2.834-0.51c0.962-0.239,1.919-0.496,2.875-0.762c0.955-0.266,1.905-0.549,2.852-0.844
				c0.878-0.273,1.984-0.484,2.736-1.025C238.364,179.366,238.325,179.118,238.125,179.118z"/>
			<path style="fill:#FFFFFF;" d="M241.841,177.786c-0.14-0.009-0.277-0.003-0.417,0.012c-0.16,0.018-0.315,0.066-0.467,0.117
				c-0.292,0.096-0.565,0.228-0.798,0.432c-0.059,0.051-0.066,0.15-0.028,0.215c0.041,0.071,0.123,0.098,0.2,0.082
				c0.265-0.055,0.522-0.14,0.783-0.211c0.127-0.035,0.257-0.055,0.383-0.092c0.134-0.04,0.268-0.081,0.401-0.123
				C242.139,178.14,242.087,177.802,241.841,177.786z"/>
			<path style="fill:#FFFFFF;" d="M228.093,183.255c-0.425,0.063-0.837,0.196-1.253,0.303c-0.432,0.111-0.866,0.214-1.299,0.318
				c-0.841,0.202-1.736,0.312-2.547,0.613c-0.093,0.035-0.083,0.176,0.024,0.178c0.859,0.016,1.744-0.22,2.581-0.394
				c0.421-0.087,0.839-0.187,1.255-0.29c0.448-0.111,0.907-0.207,1.333-0.386C228.398,183.509,228.321,183.221,228.093,183.255z"/>
			<path style="fill:#222859;" d="M236.386,191.802c-1.402,0.296-2.795,0.993-4.139,1.492c-1.28,0.476-2.572,0.917-3.861,1.367
				c-1.29,0.451-2.587,0.884-3.878,1.334c-1.36,0.475-2.835,0.894-4.066,1.654c-0.861,0.532-0.507,1.886,0.515,1.902
				c1.446,0.024,2.928-0.402,4.318-0.771c1.366-0.363,2.728-0.79,4.065-1.245c1.343-0.456,2.673-0.953,3.997-1.461
				c1.347-0.517,2.887-0.99,4.099-1.776C238.751,193.446,237.91,191.48,236.386,191.802z"/>
			<path style="fill:#222859;" d="M234.945,198.343c-0.484-0.219-0.866-0.132-1.366-0.023c-0.335,0.073-0.671,0.145-1.004,0.227
				c-0.713,0.175-1.419,0.384-2.121,0.597c-0.733,0.222-1.429,0.488-2.13,0.798c-0.609,0.269-1.399,0.512-1.674,1.17
				c-0.071,0.169,0.046,0.413,0.201,0.494c0.615,0.322,1.474-0.027,2.103-0.171c0.671-0.154,1.328-0.325,1.99-0.515
				c0.659-0.189,1.323-0.36,1.987-0.533c0.332-0.086,0.662-0.178,0.994-0.264c0.423-0.109,0.887-0.163,1.184-0.515
				C235.408,199.253,235.455,198.574,234.945,198.343z"/>
			<path style="fill:#222859;" d="M241.557,232.45c-0.335-0.192-0.739-0.098-1.087,0.006c-0.275,0.083-0.554,0.157-0.826,0.249
				c-0.273,0.093-0.546,0.184-0.821,0.271c-0.345,0.11-0.725,0.204-0.981,0.479c-0.331,0.355-0.215,1.008,0.297,1.126
				c0.377,0.087,0.732-0.021,1.088-0.139c0.283-0.094,0.566-0.19,0.848-0.29c0.311-0.11,0.613-0.25,0.915-0.384
				c0.339-0.15,0.688-0.357,0.807-0.73C241.866,232.822,241.751,232.561,241.557,232.45z"/>
			<path style="fill:#697BAE;" d="M211.231,236.107c-0.008-0.065-0.029-0.133-0.075-0.204c-1.754-2.697-3.5-5.421-4.875-8.336
				c-0.682-1.446-1.161-2.956-1.298-4.554c-0.144-1.679-0.051-3.366,0.066-5.043c0.024-0.349-0.35-0.576-0.658-0.501
				c-1.77,0.43-3.523,0.918-5.264,1.453c0.05-0.273,0.03-0.567,0.034-0.867c0.007-0.554,0.019-1.108,0.035-1.662
				c0.031-1.108,0.073-2.216,0.128-3.323c0.116-2.332,0.234-4.662,0.429-6.99c0.191-2.285,0.41-4.568,0.686-6.844
				c0.138-1.136,0.293-2.271,0.423-3.408c0.132-1.16,0.363-2.344,0.29-3.512c-0.006-0.097-0.156-0.163-0.204-0.055
				c-0.448,1.018-0.625,2.141-0.84,3.228c-0.229,1.161-0.413,2.333-0.582,3.505c-0.328,2.276-0.611,4.56-0.817,6.851
				c-0.209,2.324-0.385,4.657-0.46,6.989c-0.038,1.186-0.059,2.373-0.067,3.56c-0.004,0.554-0.004,1.108-0.005,1.662
				c0,0.397-0.048,0.787,0.102,1.126c-0.895,0.286-1.781,0.589-2.66,0.921c-0.814,0.308-1.998,0.572-2.553,1.285
				c-0.053,0.068-0.049,0.195,0.057,0.214c0.893,0.169,1.9-0.362,2.737-0.627c0.946-0.299,1.892-0.596,2.84-0.886
				c1.739-0.531,3.494-1.005,5.26-1.438c-0.111,1.49-0.205,2.986-0.053,4.475c0.164,1.609,0.615,3.115,1.287,4.582
				c1.371,2.994,3.134,5.911,5.083,8.565c-0.681,0.325-1.334,0.812-1.957,1.182c-0.847,0.503-1.694,1.007-2.541,1.51
				c-1.65,0.981-3.299,1.971-5.016,2.831c-1.686,0.844-3.448,1.567-5.284,2.011c-0.958,0.231-1.935,0.381-2.917,0.454
				c-0.95,0.07-1.881-0.01-2.829-0.025c-0.281-0.004-0.316,0.389-0.064,0.475c1.76,0.595,3.831,0.417,5.62,0.06
				c1.899-0.378,3.708-1.068,5.448-1.909c1.792-0.867,3.503-1.887,5.211-2.906c0.88-0.525,1.76-1.05,2.641-1.575
				c0.866-0.516,1.974-0.979,2.681-1.7C211.442,236.506,211.39,236.244,211.231,236.107z"/>
			<path style="fill:#697BAE;" d="M296.456,195.111c-6.112-1.125-11.623-4.23-17.665-5.616c-0.154-0.035-0.259,0.052-0.305,0.165
				c-0.047,0.008-0.094,0.029-0.142,0.05c-0.067,0.029-0.113,0.081-0.161,0.134c-0.085,0.095-0.177,0.196-0.241,0.307
				c-0.055,0.096-0.106,0.195-0.151,0.296c-0.029,0.065-0.054,0.127-0.067,0.196c-0.001,0.007-0.001,0.014-0.002,0.021
				c-0.3,0.309-0.588,0.631-0.868,0.947c-0.594,0.671-1.158,1.367-1.722,2.063c-1.154,1.425-2.238,2.905-3.296,4.403
				c-1.079,1.528-2.124,3.081-3.127,4.661c-0.46,0.724-0.934,1.448-1.331,2.208c-0.368,0.704-0.72,1.442-0.568,2.244
				c0.054,0.284,0.493,0.333,0.621,0.081c0.366-0.721,0.556-1.496,0.962-2.208c0.431-0.757,0.909-1.49,1.376-2.226
				c0.942-1.485,1.918-2.948,2.926-4.388c1.008-1.439,2.058-2.848,3.104-4.26c0.533-0.719,1.082-1.426,1.617-2.144
				c0.474-0.636,0.996-1.279,1.368-1.985c5.943,1.586,11.332,4.861,17.442,5.88C296.766,196.031,297.003,195.212,296.456,195.111z"
				/>
			<path style="fill:#697BAE;" d="M243.309,162.207c1.204-1.355,2.306-2.903,3.164-4.568c-0.295-0.06-0.586-0.111-0.876-0.161
				c-0.641,1.196-1.389,2.34-2.244,3.391c-2.031,2.5-4.59,4.555-7.446,6.039c-6.827,3.547-15.094,3.561-22.401,1.632
				c-3.15-0.831-6.134-2.044-8.768-3.889c-0.261,0.133-0.532,0.278-0.798,0.417c2.315,1.816,5.101,3.062,7.881,3.925
				c3.815,1.186,7.872,1.781,11.868,1.696C231.028,170.536,238.372,167.763,243.309,162.207z"/>
			<path style="fill:#697BAE;" d="M273.117,268.558c-8.631,4.76-18.286,7.671-28.039,8.904c-12.193,1.542-24.486,0.651-36.494-1.815
				c-3.76-0.772-7.493-1.671-11.209-2.633c-2.159-0.559-4.314-1.17-6.476-1.745c-0.061,0.289-0.122,0.575-0.183,0.861
				c1.762,0.492,3.534,0.95,5.292,1.417c3.407,0.905,6.835,1.742,10.279,2.49c6.288,1.365,12.65,2.389,19.074,2.819
				c11.863,0.794,23.984-0.324,35.318-4.023c4.363-1.424,8.568-3.256,12.567-5.475C273.206,269.103,273.162,268.833,273.117,268.558
				z"/>
			<g>
				<path style="fill:#222859;" d="M223.523,412.261l0.186-1.505c-9.574-0.004-19.147-0.011-28.721-0.001
					c0.048,0.517,0.096,1.015,0.146,1.5c6.15,0.01,12.299,0.024,18.449,0.015C216.897,412.266,220.21,412.265,223.523,412.261z"/>
				<path style="fill:#222859;" d="M264.436,412.224c0.054-0.449,0.113-0.937,0.174-1.445c-8.561-0.009-17.123-0.015-25.684-0.023
					l0.047,1.49c7.145-0.006,14.291-0.016,21.436-0.02C261.751,412.225,263.094,412.225,264.436,412.224z"/>
			</g>
			<path style="fill:#222859;" d="M224.611,433.694c0.439-0.29,0.813-0.59,0.823-1.162c0.008-0.432-0.294-0.735-0.669-0.879
				c-0.698-0.269-1.438,0.467-1.969,0.844c-0.292,0.207-0.583,0.415-0.875,0.621c-0.071-0.075-0.141-0.153-0.211-0.228
				c-0.452-0.484-0.945-0.967-1.521-1.293c-0.443-0.25-1.095,0.171-0.909,0.699c0.117,0.335,0.249,0.617,0.443,0.914
				c0.165,0.253,0.324,0.513,0.504,0.756c0.063,0.085,0.128,0.168,0.191,0.253c-0.204,0.154-0.409,0.306-0.613,0.46
				c-0.263,0.199-0.519,0.418-0.758,0.647c-0.229,0.22-0.488,0.449-0.649,0.725c-0.26,0.443,0.167,0.85,0.605,0.787
				c0.279-0.04,0.552-0.192,0.811-0.301c0.302-0.126,0.604-0.272,0.888-0.435c0.263-0.152,0.523-0.311,0.785-0.466
				c0.39,0.488,0.781,0.995,1.206,1.453c0.219,0.236,0.453,0.484,0.708,0.681c0.306,0.236,0.649,0.455,1.058,0.405
				c0.261-0.032,0.463-0.155,0.546-0.416c0.061-0.191,0.067-0.367,0.02-0.562c-0.011-0.054-0.018-0.063-0.018-0.025
				c-0.004,0.061-0.01,0.029-0.018-0.097c-0.021-0.155-0.083-0.289-0.153-0.428c-0.136-0.268-0.327-0.513-0.503-0.757
				c-0.332-0.463-0.715-0.899-1.093-1.332c0.201-0.128,0.403-0.254,0.605-0.382C224.099,434.017,224.358,433.861,224.611,433.694z"
				/>
			<path style="fill:#222859;" d="M268.027,433.46c0.439-0.29,0.813-0.59,0.823-1.162c0.007-0.432-0.294-0.735-0.669-0.879
				c-0.698-0.269-1.438,0.467-1.97,0.844c-0.292,0.207-0.582,0.415-0.875,0.621c-0.071-0.075-0.141-0.153-0.211-0.228
				c-0.452-0.484-0.945-0.967-1.521-1.293c-0.443-0.25-1.095,0.171-0.909,0.699c0.117,0.334,0.249,0.617,0.443,0.914
				c0.165,0.253,0.324,0.513,0.504,0.756c0.063,0.085,0.128,0.168,0.191,0.254c-0.204,0.154-0.409,0.306-0.613,0.46
				c-0.263,0.199-0.519,0.418-0.758,0.647c-0.229,0.22-0.488,0.449-0.649,0.725c-0.259,0.443,0.167,0.85,0.605,0.787
				c0.279-0.04,0.552-0.192,0.811-0.301c0.302-0.126,0.604-0.272,0.888-0.435c0.263-0.152,0.523-0.311,0.785-0.466
				c0.39,0.488,0.781,0.995,1.206,1.453c0.219,0.236,0.453,0.484,0.708,0.681c0.306,0.236,0.649,0.456,1.058,0.406
				c0.261-0.032,0.463-0.155,0.546-0.416c0.061-0.191,0.067-0.367,0.02-0.562c-0.011-0.054-0.017-0.063-0.018-0.025
				c-0.004,0.061-0.01,0.029-0.018-0.097c-0.021-0.155-0.083-0.29-0.153-0.428c-0.136-0.268-0.327-0.513-0.502-0.757
				c-0.332-0.463-0.715-0.899-1.093-1.332c0.201-0.128,0.403-0.254,0.605-0.382C267.515,433.784,267.775,433.627,268.027,433.46z"/>
			<path style="fill:#222859;" d="M240.362,311.944c-1.134,0.797-2.589,1.376-3.983,1.296c-1.435-0.083-2.474-1.031-3.697-1.66
				c-0.217-0.111-0.562,0.02-0.534,0.306c0.192,1.945,2.386,3.009,4.107,3.219c1.959,0.239,3.934-0.612,4.912-2.355
				C241.438,312.267,240.866,311.59,240.362,311.944z"/>
			<path style="fill:#222859;" d="M203.266,286.296c-0.101-0.273-0.342-0.424-0.635-0.361c-0.518,0.113-0.786,0.457-1.075,0.875
				c-0.244,0.353-0.488,0.708-0.744,1.053c-0.502,0.677-1.084,1.301-1.702,1.872c-0.609,0.563-1.271,1.073-1.953,1.544
				c-0.717,0.495-1.544,0.858-2.185,1.455c-0.281,0.262-0.061,0.747,0.309,0.747c0.933,0,1.828-0.476,2.633-0.907
				c0.839-0.449,1.601-1.01,2.321-1.632c0.68-0.587,1.306-1.236,1.866-1.938C202.659,288.306,203.618,287.249,203.266,286.296z"/>
			<path style="fill:#222859;" d="M270.087,288.209c-1.657-0.537-3.363-0.782-4.91-1.644c-1.535-0.856-2.797-2.053-4.026-3.288
				c-0.283-0.285-0.826,0.002-0.694,0.404c0.626,1.904,2.133,3.395,3.833,4.402c1.681,0.996,3.846,1.812,5.797,1.276
				C270.672,289.198,270.635,288.387,270.087,288.209z"/>
			<path style="fill:#ED6C6B;" d="M197.037,169.18c2.899,6.403,4.953,18.725,4.228,31.288c-0.725,12.564-2.139,18.454-2.139,18.454
				l4.917-1.058c0,0,4.47-16.55,3.02-30.322c-1.45-13.772-4.228-21.745-4.228-21.745S197.641,165.798,197.037,169.18z"/>
			<path style="fill:#ED6C6B;" d="M246.473,157.639"/>
			<path style="fill:#ED6C6B;" d="M247.751,157.926c0,0,8.135,12.428,11.751,25.673c0,0,4.163,6.682,6.201,8.607
				c0,0-3.418-20.179-12.062-32.233C253.641,159.973,250.634,157.663,247.751,157.926z"/>
			<path style="fill:#697BAE;" d="M266.617,226.08c-0.232-1.949-0.434-3.902-0.6-5.858c-0.169-1.994-0.385-3.996-0.406-5.998
				c-0.021-1.966,0.283-3.899,0.643-5.826c0.671-3.585,1.642-7.225,1.269-10.902c-0.359-3.541-1.961-6.516-4.31-9.133
				c-1.355-1.511-2.681-3.002-3.711-4.763c-1.043-1.783-1.783-3.706-2.478-5.644c-0.034-0.096-0.205-0.091-0.192,0.026
				c0.39,3.429,2.159,6.63,4.347,9.249c1.165,1.395,2.453,2.69,3.402,4.252c0.935,1.539,1.565,3.256,1.846,5.035
				c0.59,3.738-0.38,7.507-1.082,11.157c-0.352,1.833-0.637,3.688-0.687,5.556c-0.053,1.975,0.142,3.948,0.311,5.913
				c0.378,4.383,0.727,8.934,2.096,13.141c0.118,0.362,0.634,0.213,0.565-0.156C267.252,230.114,266.859,228.116,266.617,226.08z"/>
		</g>
	</g>
	<g>
		<ellipse style="fill:#74A7CB;" cx="361.957" cy="423.557" rx="81.276" ry="16.247"/>
		<g>
			<g>
				<path style="fill:#FFCE5E;" d="M348.251,310.119c-1.225-0.676-2.733-0.451-4.074-0.295c-1.122,0.131-2.241,0.316-3.307,0.704
					c-2.142,0.779-3.999,2.135-5.077,4.185c-1.043,1.984-1.687,4.272-2.137,6.459c-0.298,1.451-1.465,6.381,1.409,5.941
					c1.119-0.171,1.509-1.379,1.704-2.344c0.184-0.909,0.365-1.813,0.611-2.708c0.475-1.727,1.087-3.422,1.916-5.011
					c0.373-0.715,0.722-1.229,1.217-1.633c0.161-0.131,0.625-0.416,0.931-0.576c0.039-0.02,0.299-0.141,0.374-0.178
					c0.081-0.027,0.349-0.126,0.39-0.14c0.848-0.28,1.661-0.4,2.523-0.452c1.201-0.072,2.432,0.111,3.519-0.508
					C349.532,312.833,349.56,310.842,348.251,310.119z"/>
				<path style="fill:#FFCE5E;" d="M374.925,310.119c1.224-0.676,2.733-0.451,4.074-0.295c1.122,0.131,2.241,0.316,3.307,0.704
					c2.142,0.779,3.999,2.135,5.077,4.185c1.043,1.984,1.687,4.272,2.137,6.459c0.298,1.451,1.465,6.381-1.409,5.941
					c-1.119-0.171-1.509-1.379-1.704-2.344c-0.184-0.909-0.365-1.813-0.611-2.708c-0.475-1.727-1.087-3.422-1.917-5.011
					c-0.373-0.715-0.722-1.229-1.217-1.633c-0.161-0.131-0.625-0.416-0.931-0.576c-0.039-0.02-0.299-0.141-0.374-0.178
					c-0.081-0.027-0.349-0.126-0.39-0.14c-0.848-0.28-1.661-0.4-2.523-0.452c-1.201-0.072-2.432,0.111-3.519-0.508
					C373.644,312.833,373.615,310.842,374.925,310.119z"/>
				<path style="fill:#ED6C6B;" d="M430.709,323.172H291.665c-2.39,0-4.327,1.937-4.327,4.327v94.975
					c0,2.39,1.937,4.327,4.327,4.327h139.044c2.39,0,4.327-1.937,4.327-4.327V327.5C435.036,325.11,433.098,323.172,430.709,323.172
					z"/>
				<rect x="327.185" y="323.172" style="fill:#222859;" width="7.731" height="103.63"/>
				<rect x="387.874" y="323.172" style="fill:#222859;" width="7.731" height="103.63"/>
				<path style="fill:#FFCE5E;" d="M431.565,322.316h-13.716c0,9.965,8.078,18.043,18.043,18.043v-13.716
					C435.892,324.253,433.955,322.316,431.565,322.316z"/>
				<path style="fill:#FFCE5E;" d="M291.062,322.316h13.716c0,9.965-8.078,18.043-18.043,18.043v-13.716
					C286.736,324.253,288.673,322.316,291.062,322.316z"/>
				<path style="fill:#FFCE5E;" d="M291.062,427.822h13.716c0-9.965-8.078-18.043-18.043-18.043v13.716
					C286.736,425.884,288.673,427.822,291.062,427.822z"/>
				<path style="fill:#FFCE5E;" d="M431.565,427.822h-13.716c0-9.965,8.078-18.043,18.043-18.043v13.716
					C435.892,425.884,433.955,427.822,431.565,427.822z"/>
				<path style="fill:#222859;" d="M376.704,308.024H345.67c-1.862,0-3.372,1.51-3.372,3.372v0.749c0,1.862,1.51,3.372,3.372,3.372
					h31.034c1.862,0,3.372-1.51,3.372-3.372v-0.749C380.076,309.534,378.566,308.024,376.704,308.024z"/>
			</g>
			<g>
				<path style="fill:#FF8F3D;" d="M363.267,334.631c-0.97-0.535-2.164-0.357-3.226-0.234c-0.889,0.104-1.775,0.251-2.618,0.557
					c-1.696,0.617-3.167,1.691-4.019,3.314c-0.826,1.571-1.336,3.383-1.692,5.114c-0.236,1.149-1.16,5.052,1.115,4.704
					c0.886-0.136,1.195-1.092,1.349-1.855c0.145-0.72,0.289-1.435,0.484-2.144c0.376-1.367,0.861-2.71,1.517-3.968
					c0.296-0.566,0.572-0.973,0.963-1.293c0.127-0.104,0.495-0.329,0.737-0.456c0.031-0.016,0.237-0.112,0.296-0.141
					c0.064-0.022,0.276-0.1,0.309-0.11c0.672-0.221,1.315-0.317,1.997-0.358c0.951-0.057,1.926,0.088,2.786-0.402
					C364.282,336.78,364.304,335.203,363.267,334.631z"/>
				<path style="fill:#FF8F3D;" d="M384.387,334.631c0.97-0.535,2.164-0.357,3.226-0.234c0.889,0.104,1.775,0.251,2.618,0.557
					c1.696,0.617,3.166,1.691,4.019,3.314c0.826,1.571,1.336,3.383,1.692,5.114c0.236,1.149,1.16,5.052-1.115,4.704
					c-0.886-0.136-1.195-1.092-1.349-1.855c-0.145-0.72-0.289-1.435-0.484-2.144c-0.376-1.367-0.861-2.71-1.517-3.968
					c-0.296-0.566-0.572-0.973-0.963-1.293c-0.127-0.104-0.495-0.329-0.737-0.456c-0.031-0.016-0.237-0.112-0.296-0.141
					c-0.064-0.022-0.276-0.1-0.309-0.11c-0.672-0.221-1.315-0.317-1.997-0.358c-0.951-0.057-1.926,0.088-2.786-0.402
					C383.372,336.78,383.35,335.203,384.387,334.631z"/>
				<path style="fill:#FFCE5E;" d="M428.553,344.966H318.466c-1.892,0-3.426,1.534-3.426,3.426v75.196
					c0,1.892,1.534,3.426,3.426,3.426h110.087c1.892,0,3.426-1.534,3.426-3.426v-75.196
					C431.979,346.5,430.445,344.966,428.553,344.966z"/>
				<rect x="346.588" y="344.966" style="fill:#222859;" width="6.121" height="82.048"/>
				<rect x="394.639" y="344.966" style="fill:#222859;" width="6.121" height="82.048"/>
				<path style="fill:#FF8F3D;" d="M429.231,344.288h-10.86c0,7.89,6.396,14.286,14.285,14.286v-10.86
					C432.657,345.822,431.123,344.288,429.231,344.288z"/>
				<path style="fill:#FF8F3D;" d="M317.989,344.288h10.86c0,7.89-6.396,14.286-14.286,14.286v-10.86
					C314.563,345.822,316.097,344.288,317.989,344.288z"/>
				<path style="fill:#FF8F3D;" d="M317.989,427.822h10.86c0-7.89-6.396-14.286-14.286-14.286v10.86
					C314.563,426.288,316.097,427.822,317.989,427.822z"/>
				<path style="fill:#FF8F3D;" d="M429.231,427.822h-10.86c0-7.89,6.396-14.286,14.285-14.286v10.86
					C432.657,426.288,431.123,427.822,429.231,427.822z"/>
				<path style="fill:#222859;" d="M385.795,332.973h-24.571c-1.474,0-2.67,1.195-2.67,2.67v0.593c0,1.474,1.195,2.67,2.67,2.67
					h24.571c1.474,0,2.67-1.195,2.67-2.67v-0.593C388.465,334.168,387.27,332.973,385.795,332.973z"/>
			</g>
			<g>
				<g>
					<path style="fill:#222859;" d="M394.493,362.433c-0.637-0.813-1.26-1.47-2.203-2c-0.801-0.45-1.744-0.769-2.657-0.988
						c-1.844-0.444-3.697-0.462-5.569-0.212c-3.586,0.48-6.467,2.44-8.49,5.096c-2.005,2.632-3.48,5.685-4.871,8.611
						c-1.453,3.058-2.773,6.153-3.821,9.346c-2.076,6.324-3.105,12.968-3.259,19.562c-0.074,3.203,0.146,6.446,0.523,9.63
						c0.414,3.49,1.249,6.823,2.878,10.02c1.556,3.054,4.132,5.719,7.402,7.345c3.115,1.549,10.541,3.471,10.919-1.59
						c0.103-1.382-1.494-2.185-2.807-1.937c0.108-0.02,0.174-0.031,0.212-0.037c-0.044,0.004-0.113,0.008-0.168-0.002
						c-0.311-0.056-0.676,0.001-0.959,0.068c-0.094,0.022-0.267,0.065-0.35,0.109c-0.014,0.007-0.016,0.011-0.026,0.017
						c-0.246-0.005-0.49-0.004-0.736-0.015c0.01-0.011-0.592-0.086-0.719-0.112c-1.491-0.308-1.929-0.501-3.219-1.268
						c-0.076-0.045-0.59-0.384-0.6-0.38c-0.216-0.158-0.428-0.321-0.634-0.49c-0.502-0.413-0.972-0.857-1.428-1.311
						c-0.218-0.217-0.427-0.441-0.63-0.67c-0.032-0.047-0.312-0.388-0.362-0.454c-0.401-0.529-0.764-1.081-1.092-1.65
						c-0.665-1.151-1.096-2.343-1.473-3.725c-0.372-1.363-0.614-2.726-0.749-3.918c-0.325-2.866-0.298-5.752-0.121-8.626
						c0.089-1.434,0.19-2.867,0.347-4.296c0.042-0.381,0.09-0.762,0.135-1.143c0-0.001,0.012-0.095,0.022-0.175
						c0.016-0.108,0.049-0.333,0.054-0.369c0.113-0.707,0.237-1.413,0.373-2.118c0.543-2.82,1.266-5.619,2.1-8.38
						c0.836-2.768,1.847-5.493,3.027-8.156c0.141-0.319,0.285-0.637,0.432-0.953c0.006-0.013,0.01-0.02,0.018-0.036
						c0.086-0.174,0.168-0.351,0.253-0.526c0.319-0.656,0.655-1.303,1.002-1.947c0.694-1.288,1.43-2.557,2.206-3.806
						c0.437-0.703,0.886-1.401,1.352-2.09c0.239-0.353,0.478-0.707,0.734-1.05c0.085-0.114,0.181-0.223,0.261-0.34
						c0.014-0.021,0.018-0.028,0.025-0.04c0.022-0.021,0.039-0.036,0.072-0.067c0.253-0.243,0.492-0.494,0.766-0.719
						c0.031-0.025,0.093-0.083,0.159-0.14c0.045-0.019,0.105-0.049,0.194-0.101c0.276-0.161,0.562-0.308,0.856-0.44
						c0.104-0.047,0.423-0.14,0.317-0.113c0.042-0.011,0.076-0.021,0.085-0.023c0.313-0.092,0.632-0.173,0.953-0.239
						c0.106-0.022,0.212-0.039,0.318-0.058c-0.016-0.001-0.033-0.002-0.044-0.006c0.011,0.004,0.033,0.002,0.046,0.005
						c0.055-0.01,0.11-0.02,0.164-0.03c0.448-0.08,0.069,0.034-0.133,0.034c0.269,0.045,0.802-0.053,1.037-0.049
						c0.102,0.001,0.405,0.018,0.606,0.027c0.067,0.008,0.135,0.017,0.172,0.024c0.202,0.037,0.402,0.078,0.601,0.127
						c0.317,0.078,0.627,0.174,0.934,0.28c0.153,0.052,0.303,0.11,0.456,0.163c0.406,0.142,0.054,0.013-0.148-0.057
						c0.59,0.204,1.128,0.373,1.719,0.553C393.439,367.352,396.071,364.445,394.493,362.433z"/>
					<path style="fill:#222859;" d="M380.473,425.496C380.517,425.491,380.532,425.486,380.473,425.496L380.473,425.496z"/>
					<path style="fill:#222859;" d="M383.008,365.743c0.01,0.001,0.018,0.003,0.03,0.003c-0.009-0.002-0.02-0.002-0.028-0.004
						C383.009,365.743,383.008,365.743,383.008,365.743z"/>
				</g>
				<g>
					<path style="fill:#222859;" d="M422.047,361.077c-0.577-0.813-1.141-1.47-1.996-2c-0.726-0.451-1.58-0.769-2.407-0.988
						c-1.671-0.444-3.35-0.462-5.045-0.211c-3.249,0.48-5.859,2.44-7.692,5.096c-1.816,2.632-3.152,5.684-4.413,8.611
						c-1.317,3.058-2.512,6.153-3.462,9.346c-1.88,6.324-2.813,12.968-2.952,19.562c-0.068,3.203,0.132,6.446,0.474,9.63
						c0.375,3.49,1.131,6.823,2.607,10.02c1.409,3.054,3.743,5.719,6.706,7.345c2.822,1.549,9.549,3.471,9.892-1.59
						c0.094-1.382-1.353-2.184-2.543-1.937c0.098-0.02,0.158-0.031,0.193-0.037c-0.04,0.004-0.102,0.008-0.152-0.002
						c-0.282-0.056-0.613,0.001-0.869,0.068c-0.085,0.022-0.242,0.065-0.317,0.109c-0.013,0.007-0.015,0.011-0.024,0.017
						c-0.223-0.005-0.444-0.004-0.666-0.015c0.009-0.011-0.536-0.086-0.651-0.112c-1.351-0.308-1.747-0.501-2.917-1.268
						c-0.069-0.045-0.534-0.384-0.543-0.38c-0.196-0.158-0.388-0.321-0.574-0.49c-0.455-0.413-0.88-0.857-1.293-1.311
						c-0.197-0.217-0.387-0.442-0.57-0.67c-0.029-0.047-0.282-0.388-0.328-0.454c-0.363-0.529-0.692-1.081-0.99-1.65
						c-0.603-1.151-0.993-2.343-1.335-3.725c-0.337-1.363-0.556-2.726-0.679-3.917c-0.294-2.866-0.27-5.753-0.109-8.626
						c0.08-1.434,0.172-2.867,0.315-4.296c0.038-0.381,0.081-0.762,0.123-1.143c0-0.001,0.011-0.095,0.02-0.175
						c0.015-0.108,0.044-0.333,0.049-0.369c0.102-0.707,0.215-1.414,0.338-2.118c0.492-2.82,1.147-5.619,1.903-8.38
						c0.758-2.768,1.673-5.493,2.742-8.156c0.128-0.319,0.258-0.637,0.391-0.953c0.006-0.013,0.009-0.02,0.016-0.036
						c0.078-0.174,0.152-0.351,0.229-0.526c0.289-0.656,0.594-1.303,0.908-1.947c0.629-1.288,1.295-2.557,1.999-3.806
						c0.396-0.703,0.803-1.401,1.225-2.09c0.216-0.353,0.434-0.707,0.665-1.05c0.077-0.114,0.164-0.223,0.236-0.339
						c0.013-0.021,0.016-0.028,0.023-0.04c0.02-0.021,0.036-0.036,0.065-0.067c0.229-0.243,0.446-0.494,0.694-0.719
						c0.028-0.025,0.084-0.083,0.144-0.14c0.04-0.019,0.095-0.049,0.176-0.101c0.25-0.161,0.509-0.308,0.775-0.44
						c0.094-0.047,0.384-0.14,0.287-0.113c0.038-0.011,0.069-0.021,0.077-0.023c0.284-0.092,0.573-0.173,0.863-0.239
						c0.096-0.022,0.192-0.039,0.288-0.058c-0.014-0.001-0.03-0.002-0.04-0.006c0.01,0.004,0.03,0.002,0.042,0.005
						c0.05-0.01,0.099-0.02,0.149-0.03c0.405-0.08,0.062,0.034-0.121,0.034c0.243,0.045,0.726-0.053,0.939-0.049
						c0.092,0.001,0.367,0.018,0.549,0.027c0.061,0.008,0.122,0.017,0.156,0.024c0.183,0.036,0.364,0.078,0.544,0.127
						c0.288,0.078,0.568,0.174,0.847,0.28c0.138,0.052,0.275,0.11,0.413,0.163c0.368,0.142,0.049,0.013-0.134-0.057
						c0.534,0.204,1.022,0.373,1.557,0.553C421.091,365.996,423.476,363.089,422.047,361.077z"/>
					<path style="fill:#222859;" d="M411.409,423.923C411.452,423.918,411.467,423.913,411.409,423.923L411.409,423.923z"/>
					<path style="fill:#222859;" d="M413.943,364.17c0.01,0.001,0.019,0.003,0.03,0.003c-0.009-0.002-0.02-0.002-0.028-0.004
						C413.944,364.17,413.944,364.17,413.943,364.17z"/>
				</g>
				<path style="fill:#697BAE;" d="M382.034,364.34c-9.99,9.99-8.352,59.656-3.102,64.428c5.25,4.773,50.827,4.295,56.077-1.432
					c5.25-5.727-0.239-48.679-4.534-58.224C426.18,359.567,395.636,350.738,382.034,364.34z"/>
				<path style="fill:#495E84;" d="M382.384,412.978c-1.161-14.075-1.855-32.778,3.854-45.695c2.02-4.571,4.326-7.393,11.543-9.722
					c-6,0.617-11.644,2.677-15.746,6.779c-9.99,9.99-8.352,59.656-3.102,64.428c1.268,1.153,4.892,1.998,9.729,2.538
					C386,425.036,382.952,419.86,382.384,412.978z"/>
				<path style="fill:#FFCE5E;" d="M394.065,403.197l36.281-0.728c0.827-0.017,1.537,0.577,1.667,1.394
					c0.654,4.113,2.303,15.924,0.235,19.026c-2.517,3.775-31.617,4.404-36.808,1.73c-4.304-2.217-3.417-15.464-2.989-19.926
					C392.532,403.855,393.225,403.214,394.065,403.197z"/>
				<path style="fill:#FF8F3D;" d="M400.991,373.909l20.13,0.724c0.768,0.028,1.35,0.538,1.272,1.109
					c-0.361,2.611-2.196,9.121-11.522,8.786c-9.293-0.334-10.939-6.922-11.225-9.575
					C399.582,374.365,400.208,373.88,400.991,373.909z"/>
				<path style="fill:#697BAE;" d="M430.5,405.783c-0.005-0.255-0.175-0.506-0.503-0.497c-5.857,0.137-11.714,0.262-17.572,0.359
					c-2.929,0.049-5.857,0.156-8.785,0.223c-2.923,0.066-5.869,0.061-8.782,0.32c-0.574,0.051-0.556,0.871,0.021,0.895
					c2.922,0.12,5.865-0.027,8.788-0.1c2.928-0.074,5.858-0.107,8.785-0.198c5.856-0.182,11.712-0.338,17.569-0.482
					C430.349,406.297,430.507,406.038,430.5,405.783z"/>
				<path style="fill:#222859;" d="M432.136,407.94c-0.301-0.85-0.863-1.616-1.529-2.216c-0.011-0.009-0.024-0.014-0.035-0.023
					c-0.055-0.187-0.254-0.314-0.454-0.198c-0.077,0.044-0.149,0.088-0.217,0.139c-0.023,0.013-0.048,0.019-0.069,0.036
					c-0.085,0.068-0.144,0.163-0.184,0.266c-0.06,0.107-0.111,0.219-0.153,0.337c-0.107,0.295-0.159,0.613-0.174,0.925
					c-0.031,0.628,0.127,1.279,0.439,1.825c0.329,0.574,1.098,1.448,1.837,1.09C432.381,409.74,432.386,408.647,432.136,407.94z"/>
				<path style="fill:#9DC9DD;" d="M427.393,367.636c-0.009-0.031-0.009-0.026-0.032-0.08c-0.016-0.038-0.03-0.072-0.05-0.107
					c-0.052-0.095-0.125-0.175-0.196-0.257c-0.019-0.022-0.038-0.044-0.058-0.067c-0.054-0.063-0.121-0.112-0.19-0.158
					c-0.052-0.036-0.105-0.08-0.162-0.108c-0.062-0.03-0.127-0.055-0.191-0.083c-0.04-0.017-0.081-0.034-0.121-0.051
					c-0.068-0.021-0.135-0.024-0.203-0.009c-0.046,0-0.089,0.012-0.128,0.035c-0.063,0.021-0.118,0.056-0.164,0.105
					c-0.06,0.065-0.104,0.141-0.131,0.224c-0.021,0.068-0.024,0.135-0.009,0.203c0.003,0.068,0.023,0.131,0.06,0.189
					c0.024,0.054,0.048,0.108,0.072,0.161c0.024,0.054,0.06,0.1,0.094,0.148c0.009,0.013,0.019,0.027,0.028,0.04
					c0.004,0.005,0.007,0.01,0.01,0.015c0.025,0.035,0.072,0.101,0.102,0.132c0.023,0.024,0.05,0.044,0.076,0.066
					c0.022,0.019,0.045,0.038,0.067,0.057c0.059,0.05,0.122,0.111,0.186,0.147c0.025,0.014,0.05,0.027,0.075,0.04
					c0.032,0.017,0.109,0.051,0.144,0.062c0.004,0.001,0.007,0.002,0.011,0.002c0.051,0.007,0.102,0.014,0.153,0.02
					c0.012,0,0.145-0.018,0.156-0.022c0.005-0.002,0.01-0.004,0.015-0.006c0.088-0.035,0.172-0.066,0.239-0.139l0.042-0.055
					c0.034-0.034,0.057-0.074,0.07-0.119c0.01-0.024,0.025-0.054,0.034-0.082c0.003-0.025,0.007-0.051,0.01-0.076
					C427.42,367.789,427.417,367.713,427.393,367.636z"/>
				<path style="fill:#9DC9DD;" d="M427.37,369.9c-0.021-0.074-0.06-0.137-0.113-0.193c0.015,0.02,0.03,0.039,0.045,0.059
					c-0.002-0.003-0.004-0.005-0.006-0.008c-0.013-0.019-0.027-0.037-0.042-0.054c-0.002-0.003-0.003-0.006-0.005-0.009
					c-0.009-0.009-0.017-0.019-0.024-0.029c0.009,0.012,0.018,0.023,0.027,0.034c-0.022-0.036-0.051-0.066-0.087-0.087
					c-0.021-0.016-0.036-0.026-0.052-0.037c-0.013-0.013-0.026-0.027-0.041-0.038c-0.01-0.008-0.018-0.019-0.027-0.027
					c-0.006-0.011-0.014-0.022-0.02-0.034c-0.002-0.005-0.004-0.009-0.006-0.014c-0.024-0.044-0.061-0.076-0.099-0.107
					c-0.019-0.024-0.037-0.048-0.056-0.072c-0.027-0.021-0.053-0.041-0.08-0.062c-0.045-0.029-0.095-0.045-0.147-0.047
					c-0.035-0.01-0.07-0.01-0.105,0c-0.036,0-0.069,0.009-0.1,0.027c-0.034,0.009-0.063,0.026-0.087,0.051
					c-0.036,0.023-0.062,0.057-0.085,0.093c-0.007,0.006-0.015,0.012-0.022,0.017c-0.049,0.045-0.083,0.099-0.103,0.16
					c-0.022,0.039-0.034,0.081-0.034,0.126c-0.015,0.066-0.012,0.133,0.009,0.199c0.003,0.021,0.008,0.041,0.014,0.062
					c0.004,0.011,0.008,0.022,0.012,0.032c0.02,0.048,0.039,0.098,0.062,0.145c0.009,0.019,0.02,0.038,0.032,0.055
					c0.03,0.044,0.068,0.091,0.098,0.129c0.034,0.042,0.075,0.067,0.123,0.101c0.017,0.012,0.035,0.024,0.054,0.034
					c0.056,0.029,0.116,0.053,0.174,0.075c0.099,0.036,0.217,0.044,0.318,0.013c0.055-0.017,0.108-0.041,0.16-0.066
					c0.07-0.041,0.125-0.097,0.167-0.167c0.034-0.053,0.052-0.111,0.055-0.173C427.392,370.024,427.389,369.962,427.37,369.9z"/>
				<path style="fill:#9DC9DD;" d="M429.167,369.416c-0.007-0.022-0.014-0.044-0.021-0.065c-0.023-0.072-0.043-0.148-0.079-0.214
					c-0.034-0.063-0.09-0.12-0.136-0.177c-0.05-0.05-0.109-0.084-0.176-0.103c-0.071-0.019-0.142-0.019-0.212,0
					c-0.068,0.019-0.126,0.053-0.176,0.103c-0.049,0.05-0.084,0.109-0.103,0.176c-0.012,0.071-0.031,0.151-0.031,0.221
					c0,0.077,0.024,0.159,0.041,0.235l0.013,0.061c0.012,0.056,0.036,0.104,0.059,0.157c0.057,0.129,0.174,0.226,0.309,0.265
					c0.14,0.04,0.301-0.002,0.402-0.106c0.097-0.1,0.153-0.244,0.138-0.383C429.189,369.529,429.184,369.471,429.167,369.416z"/>
				<path style="fill:#9DC9DD;" d="M428.821,371.673c-0.018-0.04-0.035-0.081-0.055-0.121c-0.03-0.06-0.081-0.097-0.132-0.138
					c-0.029-0.029-0.064-0.049-0.104-0.06c-0.031-0.01-0.062-0.011-0.094-0.004c-0.065,0.009-0.144,0.047-0.172,0.112
					c-0.032,0.075-0.074,0.15-0.073,0.233c0,0.046,0.005,0.093,0.008,0.139c0.005,0.077,0.018,0.143,0.058,0.208
					c0.011,0.019,0.023,0.038,0.034,0.056c0.025,0.041,0.05,0.082,0.075,0.123c0.059,0.096,0.187,0.158,0.299,0.122
					c0.115-0.037,0.188-0.134,0.194-0.255c0.002-0.044,0.005-0.089,0.007-0.133c0.001-0.024,0.003-0.048,0.004-0.073
					C428.876,371.806,428.853,371.743,428.821,371.673z"/>
				<g>
					<polygon style="fill:#9DC9DD;" points="388.242,426.008 388.236,426.016 388.237,426.015 					"/>
					<path style="fill:#9DC9DD;" d="M388.416,425.066c-0.016-0.039-0.032-0.077-0.049-0.115c-0.053-0.091-0.135-0.157-0.231-0.198
						c-0.038-0.022-0.078-0.033-0.122-0.033c-0.043-0.012-0.086-0.012-0.128,0c-0.044,0-0.084,0.011-0.122,0.033
						c-0.06,0.02-0.112,0.053-0.155,0.1c-0.02,0.02-0.039,0.04-0.057,0.061c-0.069,0.082-0.116,0.145-0.149,0.249
						c-0.004,0.012-0.008,0.025-0.011,0.037c-0.024,0.099-0.038,0.202-0.044,0.303c-0.004,0.071-0.002,0.146,0.019,0.213
						c0.019,0.064,0.049,0.125,0.078,0.185c0.051,0.108,0.126,0.207,0.237,0.259c0.096,0.045,0.207,0.075,0.313,0.041
						c0.032-0.014,0.065-0.027,0.097-0.041c0.057-0.034,0.102-0.081,0.137-0.137c0.036-0.048,0.067-0.098,0.082-0.163
						c0.006-0.025,0.012-0.05,0.019-0.075c0.007-0.024,0.017-0.046,0.025-0.07c0.009-0.027,0.008-0.057,0.011-0.086
						c0.008-0.052,0.019-0.103,0.035-0.153c0.021-0.065,0.031-0.132,0.03-0.2c0-0.028,0.001-0.055,0.004-0.083
						C388.427,425.152,388.421,425.109,388.416,425.066z"/>
					<path style="fill:#9DC9DD;" d="M388.236,426.016c-0.002,0.004-0.006,0.005-0.009,0.009c-0.016,0.022-0.032,0.045-0.05,0.068
						L388.236,426.016z"/>
				</g>
				<path style="fill:#9DC9DD;" d="M389.749,426.212c-0.026-0.109-0.051-0.219-0.066-0.331c0.005,0.037,0.01,0.073,0.015,0.11
					c-0.013-0.103-0.025-0.204-0.049-0.305c-0.007-0.031-0.014-0.063-0.02-0.095c-0.014-0.072-0.05-0.125-0.095-0.172
					c-0.037-0.089-0.1-0.154-0.2-0.168c-0.106-0.014-0.187,0.036-0.248,0.119c-0.002,0.002-0.003,0.004-0.005,0.006
					c-0.115,0.089-0.158,0.232-0.189,0.373c-0.028,0.124-0.023,0.251-0.012,0.377c0.011,0.127,0.027,0.256,0.062,0.379
					c0.044,0.152,0.161,0.332,0.306,0.402c0.103,0.05,0.203,0.063,0.31,0.018c0.108-0.046,0.158-0.121,0.202-0.226
					c-0.036,0.087-0.032,0.075,0.015-0.034c0.009-0.04,0.013-0.081,0.014-0.122c0.001-0.029,0.002-0.058,0.001-0.086
					C389.788,426.373,389.768,426.294,389.749,426.212z"/>
				<path style="fill:#9DC9DD;" d="M389.487,428.965c-0.001-0.055-0.002-0.1-0.018-0.161c-0.014-0.052-0.04-0.1-0.062-0.149
					c-0.026-0.056-0.052-0.112-0.078-0.168c-0.028-0.061-0.074-0.111-0.117-0.162c-0.02-0.023-0.038-0.049-0.059-0.071
					c-0.043-0.044-0.101-0.079-0.152-0.115c-0.064-0.045-0.143-0.063-0.224-0.066c-0.069-0.022-0.174-0.005-0.232,0.033
					c-0.057,0.037-0.1,0.09-0.127,0.153c-0.048,0.071-0.081,0.151-0.083,0.248c-0.001,0.029-0.001,0.057,0,0.086
					c0.005,0.132,0.052,0.285,0.114,0.399c0.03,0.056,0.062,0.113,0.095,0.168c0.027,0.044,0.059,0.095,0.095,0.128
					c0.036,0.033,0.078,0.061,0.117,0.09l0.071,0.053c0.068,0.04,0.142,0.06,0.222,0.06c0.079,0,0.153-0.02,0.222-0.06
					c0.132-0.078,0.22-0.225,0.218-0.38C389.488,429.022,389.487,428.994,389.487,428.965z"/>
			</g>
		</g>
	</g>
	<g>
		<ellipse style="fill:#74A7CB;" cx="122.931" cy="428.88" rx="55.27" ry="10.309"/>
		<g>
			<g>
				<path style="fill:#ED6C6B;" d="M121.815,327.902c-5.72-0.216-6.72-5.6-11.448-1.369c-4.729,4.231-6.595,23.519,10.204,22.523
					c16.799-0.995,14.186-18.354,11.697-22.212C129.779,322.987,125.112,328.026,121.815,327.902z"/>
				<path style="fill:#222859;" d="M122.062,321.233c-0.118-0.671-0.324-2.036-1.246-2.032c-0.923,0.004-0.796,1.287-0.709,1.881
					c0.117,0.796,0.213,1.602,0.267,2.405c0.056,0.833,0.066,1.673,0.048,2.508c-0.017,0.771-0.06,1.691,0.183,2.429
					c0.087,0.264,0.475,0.433,0.681,0.18c0.486-0.596,0.729-1.459,0.842-2.211c0.128-0.853,0.178-1.709,0.164-2.572
					C122.278,322.952,122.212,322.088,122.062,321.233z"/>
				<path style="fill:#4D867E;" d="M124.925,320.731c1.443-0.752,3.103-1.045,4.727-0.957c1.047,0.057,2.165,0.311,2.857,1.099
					c-0.697,1.682-2.267,2.897-3.988,3.493c-1.72,0.597-3.585,0.64-5.401,0.5c-0.362-0.028-1.276-0.085-1.431-0.511
					c-0.138-0.38,0.432-1.077,0.629-1.359C122.985,322.043,123.897,321.267,124.925,320.731z"/>
				<path style="fill:#83BAA8;" d="M131.733,321.882c-0.386-0.064-0.769-0.15-1.145-0.259c-0.261-0.076-0.561-0.134-0.819-0.248
					c0.145-0.028,0.29-0.057,0.436-0.082c0.735-0.124,1.474-0.176,2.212-0.233c0.029-0.063,0.066-0.122,0.092-0.187
					c-0.092-0.105-0.193-0.199-0.3-0.286c-0.605,0.035-1.21,0.114-1.802,0.2c-0.79,0.114-1.573,0.275-2.347,0.473
					c0.048-0.048,0.098-0.093,0.145-0.142c0.31-0.318,0.62-0.634,0.942-0.94c0.148-0.14,0.299-0.275,0.453-0.405
					c-0.183-0.009-0.367-0.014-0.551-0.014c-0.048,0.043-0.1,0.085-0.147,0.129c-0.341,0.317-0.649,0.671-0.964,1.013
					c-0.045,0.049-0.296,0.296-0.456,0.515c-0.21,0.06-0.42,0.12-0.629,0.186c-1.037,0.33-2.051,0.75-3.03,1.229
					c0.074-0.099,0.147-0.199,0.221-0.298c0.253-0.342,0.533-0.666,0.831-0.97c0.55-0.56,1.171-1.039,1.804-1.501
					c-0.291,0.076-0.576,0.169-0.857,0.274c-0.415,0.288-0.803,0.617-1.157,0.977c-0.298,0.303-0.575,0.628-0.831,0.967
					c-0.125,0.165-0.238,0.333-0.342,0.513c-0.046,0.079-0.113,0.182-0.163,0.287c-0.433,0.226-0.859,0.464-1.275,0.719
					c-0.105,0.064-0.223,0.13-0.343,0.199c-0.043,0.132-0.058,0.256-0.022,0.357c0.029,0.08,0.091,0.144,0.166,0.2
					c0.133-0.095,0.262-0.192,0.388-0.269c0.494-0.305,1-0.589,1.516-0.856c0.542-0.28,1.095-0.533,1.657-0.763
					c0.383,0.299,0.852,0.492,1.301,0.667c0.556,0.217,1.129,0.386,1.714,0.502c0.321,0.063,0.649,0.114,0.98,0.151
					c0.229-0.113,0.452-0.237,0.668-0.373c-0.536-0.011-1.07-0.047-1.606-0.141c-0.532-0.093-1.058-0.223-1.571-0.393
					c-0.432-0.143-0.846-0.345-1.276-0.496c0.448-0.178,0.901-0.346,1.361-0.496c0.783-0.257,1.58-0.47,2.387-0.639
					c0.048,0.226,0.496,0.333,0.673,0.401c0.443,0.172,0.907,0.289,1.373,0.379c0.074,0.014,0.151,0.023,0.226,0.036
					c0.098-0.116,0.192-0.235,0.28-0.358C131.862,321.898,131.798,321.892,131.733,321.882z"/>
			</g>
			<g>
				<path style="fill:#697BAE;" d="M129.227,426.052c-2.832,0-5.128-5.938-5.128-13.262c0-7.324,2.296-13.262,5.128-13.262h45.724
					c0.793,0,1.435-0.643,1.435-1.435v-0.798c0-0.793-0.643-1.435-1.435-1.435H76.195c-3.747,0-6.784,7.58-6.784,16.931
					c0,9.351,3.037,16.931,6.784,16.931h98.756c0.793,0,1.435-0.643,1.435-1.435v-0.798c0-0.793-0.643-1.435-1.435-1.435H129.227z"
					/>
				<path style="fill:#FFFFFF;" d="M174.278,399.527H121.52c-2.832,0-5.128,5.938-5.128,13.262c0,7.325,2.296,13.263,5.128,13.263
					h52.758V399.527z"/>
				<path style="fill:#D5F2F9;" d="M141.602,403.77c-3.186-0.392-6.513-0.135-9.722-0.12c-1.59,0.008-3.18,0.006-4.769,0.024
					c-1.259,0.014-3.152-0.283-4.241,0.447c-0.029,0.019-0.029,0.058,0,0.077c1.053,0.705,2.843,0.428,4.058,0.445
					c1.65,0.023,3.302,0.017,4.952,0.025c3.208,0.016,6.535,0.272,9.722-0.12C142.103,404.488,142.104,403.831,141.602,403.77z"/>
				<path style="fill:#D5F2F9;" d="M157.777,408.144c-1.823-0.439-3.926-0.204-5.796-0.223c-1.966-0.019-3.933,0.005-5.899,0.013
					c-1.966,0.008-3.933-0.004-5.899,0.031c-1.923,0.035-3.851-0.023-5.719,0.455c-0.085,0.022-0.085,0.151,0,0.173
					c1.868,0.479,3.797,0.421,5.719,0.455c1.966,0.035,3.933,0.023,5.899,0.031c1.966,0.008,3.933,0.033,5.899,0.013
					c1.875-0.018,3.968,0.217,5.796-0.223C158.136,408.785,158.136,408.23,157.777,408.144z"/>
				<path style="fill:#D5F2F9;" d="M125.755,408.294c-0.991-0.185-1.991-0.111-2.994-0.091c-0.504,0.01-1.006,0.02-1.507,0.08
					c-0.217,0.026-0.441,0.038-0.656,0.079c-0.261,0.051-0.49,0.178-0.739,0.265c-0.012,0.004-0.012,0.021,0,0.025
					c0.249,0.087,0.477,0.212,0.739,0.265c0.214,0.043,0.439,0.053,0.656,0.079c0.501,0.06,1.003,0.07,1.507,0.08
					c1.003,0.02,2.003,0.093,2.994-0.091C126.096,408.921,126.097,408.358,125.755,408.294z"/>
				<path style="fill:#D5F2F9;" d="M153.176,414.695c-2.217-0.375-4.547-0.18-6.79-0.175c-2.429,0.006-4.858,0.012-7.287,0.018
					c-2.361,0.006-4.723,0.02-7.084,0.038c-1.148,0.009-2.294,0.049-3.441,0.087c-1.141,0.037-2.371-0.019-3.452,0.393
					c-0.039,0.015-0.039,0.064,0,0.079c1.019,0.388,2.173,0.351,3.249,0.386c1.147,0.038,2.293,0.083,3.441,0.092
					c2.429,0.019,4.858,0.034,7.287,0.04c2.361,0.006,4.723,0.012,7.084,0.018c2.308,0.006,4.712,0.212,6.992-0.174
					C153.572,415.429,153.572,414.762,153.176,414.695z"/>
				<path style="fill:#D5F2F9;" d="M170.713,414.909c-0.956-0.268-1.984-0.16-2.97-0.157c-1.028,0.003-2.055,0.008-3.083,0.018
					c-1.959,0.02-4.068-0.065-5.963,0.466c-0.122,0.034-0.122,0.212,0,0.247c1.896,0.531,4.004,0.446,5.963,0.466
					c1.028,0.01,2.055,0.015,3.083,0.018c0.985,0.003,2.015,0.11,2.97-0.157C171.156,415.685,171.157,415.033,170.713,414.909z"/>
				<path style="fill:#D5F2F9;" d="M126.782,421.173c-0.609-0.172-1.218-0.214-1.848-0.197c-0.305,0.008-0.604,0.018-0.907,0.057
					c-0.167,0.021-0.323,0.043-0.482,0.099c-0.056,0.02-0.132,0.038-0.183,0.069c-0.054,0.034-0.078,0.095-0.129,0.125
					c-0.07,0.04-0.07,0.147,0,0.188c0.051,0.029,0.074,0.091,0.129,0.125c0.051,0.031,0.127,0.049,0.183,0.069
					c0.161,0.057,0.314,0.078,0.482,0.099c0.303,0.039,0.602,0.049,0.907,0.057c0.631,0.017,1.239-0.026,1.848-0.197
					C127.025,421.598,127.025,421.242,126.782,421.173z"/>
				<path style="fill:#D5F2F9;" d="M163.21,421.142c-2.687-0.215-5.412-0.105-8.105-0.108c-2.769-0.003-5.539,0-8.308-0.025
					c-2.702-0.025-5.404-0.051-8.105-0.059c-1.352-0.004-2.702,0.005-4.053,0.027c-1.141,0.019-2.508-0.156-3.535,0.419
					c-0.116,0.065-0.116,0.244,0,0.309c0.976,0.547,2.248,0.398,3.333,0.416c1.351,0.022,2.701,0.035,4.053,0.031
					c2.77-0.008,5.539-0.034,8.308-0.06c2.702-0.025,5.404-0.022,8.105-0.025c2.761-0.003,5.554,0.112,8.308-0.108
					C163.736,421.918,163.737,421.184,163.21,421.142z"/>
				<g>
					<path style="fill:#D5F2F9;" d="M148.109,404.06c1.32,0.414,2.792,0.269,4.16,0.285c1.427,0.016,2.855,0.031,4.282,0.051
						c2.923,0.039,5.845,0.074,8.768,0.083c2.969,0.01,5.967,0.111,8.96,0.105v-1.64c-2.992-0.006-5.99,0.096-8.96,0.106
						c-2.855,0.01-5.709,0.042-8.564,0.081c-1.495,0.02-2.991,0.036-4.486,0.053c-1.367,0.016-2.841-0.129-4.16,0.285
						C147.818,403.56,147.817,403.969,148.109,404.06z"/>
					<path style="fill:#D5F2F9;" d="M172.17,407.68c-1.291,0.037-2.598,0.133-3.847,0.471c-0.091,0.025-0.091,0.16,0,0.185
						c1.249,0.338,2.556,0.434,3.847,0.471c0.662,0.019,1.325,0.026,1.987,0.038c0.04,0.001,0.081,0.001,0.121,0.002v-1.208
						c-0.04,0.001-0.081,0.001-0.121,0.002C173.495,407.655,172.832,407.661,172.17,407.68z"/>
					<path style="fill:#D5F2F9;" d="M174.278,420.749c-0.474,0.004-0.949,0.007-1.423,0.011c-0.949,0.007-1.897,0.019-2.846,0.029
						c-0.7,0.008-1.859-0.115-2.396,0.422c-0.041,0.042-0.042,0.112,0,0.154c0.533,0.534,1.7,0.415,2.396,0.422
						c0.949,0.01,1.897,0.022,2.846,0.029c0.474,0.004,0.949,0.007,1.423,0.011V420.749z"/>
				</g>
				<path style="fill:#222859;" d="M104.827,403.896c-6.34,0-6.35,16.338,0,16.338C111.167,420.234,111.177,403.896,104.827,403.896
					z"/>
				<path style="fill:#222859;" d="M95.592,408.493c-3.112-0.018-6.222-0.032-9.334-0.005c-1.043,0.009-2.09,0.009-3.136,0.027
					c-0.71-0.004-1.419-0.01-2.129-0.013c-0.768-0.003-1.537-0.005-2.305-0.008c-0.837-0.003-1.751-0.097-2.539,0.219
					c-0.829,0.332-0.83,1.362,0,1.695c0.733,0.294,1.568,0.222,2.347,0.22c0.832-0.003,1.665-0.005,2.497-0.008
					c0.74-0.002,1.48-0.009,2.22-0.013c1.015,0.017,2.031,0.019,3.045,0.027c3.112,0.026,6.222,0.013,9.334-0.005
					C96.966,410.638,96.968,408.501,95.592,408.493z"/>
				<path style="fill:#222859;" d="M93.484,413.665c-2.466-0.017-4.93-0.031-7.396-0.005c-0.827,0.009-1.656,0.008-2.485,0.026
					c-0.562-0.004-1.125-0.01-1.687-0.012c-0.609-0.002-1.218-0.005-1.826-0.007c-0.664-0.003-1.387-0.094-2.012,0.212
					c-0.657,0.322-0.658,1.319,0,1.642c0.581,0.285,1.242,0.215,1.859,0.213c0.66-0.003,1.319-0.005,1.979-0.008
					c0.586-0.002,1.173-0.008,1.759-0.013c0.805,0.016,1.609,0.018,2.413,0.027c2.466,0.026,4.93,0.013,7.396-0.005
					C94.574,415.742,94.575,413.673,93.484,413.665z"/>
			</g>
			<g>
				<path style="fill:#ED6C6B;" d="M128.469,393.124c-2.515,0-4.554-4.426-4.554-9.886c0-5.46,2.039-9.886,4.554-9.886h40.605
					c0.704,0,1.275-0.479,1.275-1.07v-0.595c0-0.591-0.571-1.07-1.275-1.07h-87.7c-3.327,0-6.025,5.65-6.025,12.62
					c0,6.97,2.698,12.62,6.025,12.62h87.7c0.704,0,1.275-0.479,1.275-1.07v-0.595c0-0.591-0.571-1.07-1.275-1.07H128.469z"/>
				<path style="fill:#FFFFFF;" d="M168.477,373.353h-46.852c-2.515,0-4.554,4.426-4.554,9.886c0,5.46,2.039,9.886,4.554,9.886
					h46.852V373.353z"/>
				<path style="fill:#D5F2F9;" d="M139.459,376.515c-2.829-0.292-5.784-0.101-8.633-0.089c-1.412,0.006-2.824,0.004-4.235,0.018
					c-1.118,0.011-2.799-0.211-3.766,0.333c-0.026,0.014-0.026,0.043,0,0.058c0.936,0.526,2.524,0.32,3.604,0.332
					c1.466,0.017,2.932,0.013,4.398,0.019c2.849,0.012,5.804,0.203,8.633-0.089C139.903,377.05,139.904,376.561,139.459,376.515z"/>
				<path style="fill:#D5F2F9;" d="M153.823,379.776c-1.619-0.327-3.486-0.152-5.147-0.166c-1.746-0.014-3.493,0.004-5.238,0.01
					c-1.746,0.006-3.493-0.003-5.239,0.023c-1.707,0.026-3.42-0.017-5.079,0.339c-0.076,0.016-0.076,0.112,0,0.129
					c1.659,0.357,3.372,0.314,5.079,0.339c1.745,0.026,3.493,0.017,5.239,0.023s3.493,0.025,5.238,0.01
					c1.665-0.014,3.524,0.162,5.147-0.166C154.142,380.253,154.142,379.84,153.823,379.776z"/>
				<path style="fill:#D5F2F9;" d="M125.386,379.888c-0.88-0.138-1.768-0.083-2.659-0.068c-0.447,0.007-0.894,0.015-1.339,0.06
					c-0.193,0.019-0.392,0.028-0.583,0.059c-0.231,0.038-0.436,0.133-0.656,0.198c-0.011,0.003-0.011,0.015,0,0.018
					c0.222,0.065,0.424,0.158,0.656,0.198c0.19,0.032,0.39,0.04,0.583,0.059c0.445,0.045,0.891,0.052,1.339,0.059
					c0.891,0.015,1.779,0.069,2.659-0.068C125.689,380.355,125.689,379.935,125.386,379.888z"/>
				<path style="fill:#D5F2F9;" d="M149.737,384.659c-1.968-0.28-4.038-0.134-6.03-0.13c-2.157,0.005-4.314,0.009-6.471,0.014
					c-2.097,0.004-4.194,0.015-6.291,0.029c-1.019,0.007-2.037,0.037-3.056,0.065c-1.013,0.028-2.105-0.014-3.065,0.293
					c-0.034,0.011-0.034,0.048,0,0.059c0.905,0.289,1.93,0.261,2.886,0.288c1.018,0.028,2.037,0.062,3.056,0.069
					c2.157,0.014,4.314,0.025,6.471,0.03c2.097,0.004,4.194,0.009,6.291,0.013c2.049,0.004,4.185,0.158,6.21-0.13
					C150.089,385.206,150.089,384.709,149.737,384.659z"/>
				<path style="fill:#D5F2F9;" d="M165.311,384.818c-0.849-0.199-1.762-0.12-2.637-0.117c-0.913,0.002-1.825,0.006-2.738,0.013
					c-1.74,0.015-3.612-0.048-5.296,0.347c-0.108,0.025-0.108,0.158,0,0.184c1.684,0.395,3.555,0.332,5.296,0.347
					c0.913,0.008,1.825,0.011,2.738,0.014c0.875,0.002,1.789,0.082,2.637-0.117C165.705,385.396,165.705,384.911,165.311,384.818z"
					/>
				<path style="fill:#D5F2F9;" d="M126.298,389.488c-0.54-0.128-1.081-0.16-1.641-0.147c-0.271,0.006-0.536,0.013-0.805,0.043
					c-0.148,0.016-0.286,0.032-0.428,0.074c-0.05,0.015-0.117,0.028-0.162,0.052c-0.048,0.025-0.069,0.071-0.114,0.093
					c-0.063,0.03-0.063,0.11,0,0.14c0.045,0.022,0.066,0.068,0.114,0.093c0.045,0.023,0.113,0.037,0.162,0.052
					c0.143,0.043,0.279,0.058,0.428,0.074c0.269,0.029,0.534,0.036,0.805,0.043c0.56,0.013,1.1-0.019,1.641-0.147
					C126.514,389.804,126.514,389.539,126.298,389.488z"/>
				<path style="fill:#D5F2F9;" d="M158.648,389.465c-2.386-0.16-4.806-0.078-7.198-0.081c-2.459-0.002-4.919,0-7.378-0.019
					c-2.399-0.018-4.799-0.038-7.198-0.044c-1.2-0.003-2.399,0.004-3.599,0.02c-1.013,0.014-2.227-0.116-3.139,0.313
					c-0.103,0.048-0.103,0.182,0,0.23c0.867,0.408,1.997,0.297,2.959,0.31c1.2,0.017,2.399,0.026,3.599,0.023
					c2.459-0.006,4.919-0.025,7.378-0.044c2.399-0.018,4.799-0.016,7.198-0.019c2.451-0.002,4.933,0.083,7.378-0.081
					C159.115,390.043,159.116,389.496,158.648,389.465z"/>
				<g>
					<path style="fill:#D5F2F9;" d="M145.237,376.731c1.172,0.308,2.48,0.201,3.694,0.212c1.268,0.012,2.535,0.023,3.803,0.038
						c2.596,0.029,5.191,0.055,7.786,0.062c2.637,0.007,5.299,0.083,7.956,0.078v-1.223c-2.657-0.004-5.32,0.071-7.956,0.079
						c-2.535,0.007-5.07,0.032-7.605,0.06c-1.328,0.015-2.656,0.027-3.984,0.04c-1.214,0.012-2.523-0.096-3.694,0.212
						C144.978,376.358,144.978,376.663,145.237,376.731z"/>
					<path style="fill:#D5F2F9;" d="M166.604,379.43c-1.146,0.028-2.307,0.099-3.416,0.351c-0.081,0.018-0.081,0.119,0,0.138
						c1.109,0.252,2.27,0.324,3.416,0.351c0.588,0.014,1.176,0.019,1.765,0.029c0.036,0,0.072,0.001,0.108,0.001V379.4
						c-0.036,0.001-0.072,0.001-0.108,0.002C167.781,379.411,167.192,379.416,166.604,379.43z"/>
					<path style="fill:#D5F2F9;" d="M168.477,389.172c-0.421,0.003-0.842,0.005-1.264,0.008c-0.842,0.005-1.685,0.014-2.527,0.022
						c-0.621,0.006-1.651-0.085-2.128,0.315c-0.037,0.031-0.037,0.084,0,0.115c0.474,0.398,1.51,0.309,2.128,0.315
						c0.842,0.008,1.685,0.016,2.527,0.022c0.421,0.003,0.842,0.005,1.264,0.008V389.172z"/>
				</g>
				<path style="fill:#222859;" d="M98.044,378.7c-1.433-0.001-2.867-0.002-4.3-0.003c-0.067-0.004-0.135-0.005-0.203-0.011
					c-1.042-0.089-2.101-0.037-3.147-0.034c-0.119,0-0.222,0.023-0.311,0.064c-0.72,0.114-0.72,1.214,0.004,1.322
					c0.088,0.04,0.19,0.063,0.307,0.063c1.046,0.004,2.105,0.055,3.147-0.033c0.067-0.006,0.136-0.007,0.203-0.011
					c1.433-0.001,2.866-0.002,4.299-0.003C98.916,380.055,98.918,378.7,98.044,378.7z"/>
				<path style="fill:#222859;" d="M104.085,383.882c-3.64-0.001-7.281-0.003-10.921-0.005c-0.172-0.006-0.344-0.007-0.515-0.015
					c-2.647-0.123-5.336-0.052-7.994-0.047c-0.302-0.001-0.564,0.033-0.789,0.09c-1.829,0.159-1.828,1.691,0.01,1.842
					c0.222,0.056,0.482,0.088,0.779,0.088c2.657,0.005,5.347,0.077,7.994-0.047c0.171-0.008,0.344-0.009,0.516-0.015
					c3.64-0.001,7.28-0.003,10.92-0.004C106.3,385.77,106.303,383.883,104.085,383.882z"/>
			</g>
			<g>
				<path style="fill:#FFCE5E;" d="M127.672,368.272c-2.158,0-3.907-3.798-3.907-8.482s1.749-8.483,3.907-8.483h34.84
					c0.604,0,1.094-0.411,1.094-0.918v-0.51c0-0.507-0.49-0.918-1.094-0.918H87.262c-2.855,0-5.169,4.848-5.169,10.829
					s2.314,10.829,5.169,10.829h75.249c0.604,0,1.094-0.411,1.094-0.918v-0.51c0-0.507-0.49-0.918-1.094-0.918H127.672z"/>
				<path style="fill:#FFFFFF;" d="M161.999,351.307h-40.2c-2.158,0-3.907,3.798-3.907,8.483s1.749,8.483,3.907,8.483h40.2V351.307z
					"/>
				<path style="fill:#D5F2F9;" d="M137.101,354.02c-2.428-0.251-4.963-0.086-7.408-0.076c-1.211,0.005-2.423,0.004-3.634,0.015
					c-0.96,0.009-2.401-0.181-3.232,0.286c-0.022,0.012-0.022,0.037,0,0.049c0.803,0.451,2.166,0.274,3.092,0.285
					c1.258,0.015,2.516,0.011,3.774,0.016c2.445,0.01,4.98,0.174,7.408-0.076C137.482,354.48,137.483,354.06,137.101,354.02z"/>
				<path style="fill:#D5F2F9;" d="M149.425,356.818c-1.389-0.281-2.991-0.131-4.416-0.143c-1.498-0.012-2.997,0.003-4.495,0.009
					c-1.498,0.005-2.997-0.003-4.495,0.02c-1.465,0.022-2.934-0.015-4.358,0.291c-0.065,0.014-0.065,0.096,0,0.11
					c1.424,0.306,2.893,0.269,4.358,0.291c1.498,0.023,2.997,0.015,4.495,0.02c1.498,0.005,2.997,0.021,4.495,0.008
					c1.429-0.012,3.024,0.139,4.416-0.142C149.699,357.228,149.699,356.873,149.425,356.818z"/>
				<path style="fill:#D5F2F9;" d="M125.026,356.914c-0.755-0.118-1.517-0.071-2.281-0.059c-0.384,0.006-0.767,0.013-1.148,0.051
					c-0.166,0.017-0.336,0.024-0.5,0.051c-0.199,0.033-0.374,0.114-0.563,0.17c-0.009,0.003-0.009,0.013,0,0.016
					c0.19,0.056,0.363,0.136,0.563,0.169c0.163,0.028,0.335,0.034,0.5,0.051c0.382,0.038,0.765,0.045,1.148,0.051
					c0.765,0.013,1.526,0.06,2.281-0.059C125.286,357.315,125.286,356.955,125.026,356.914z"/>
				<path style="fill:#D5F2F9;" d="M145.919,361.008c-1.689-0.24-3.464-0.115-5.174-0.112c-1.851,0.004-3.702,0.008-5.552,0.012
					c-1.799,0.004-3.599,0.013-5.398,0.024c-0.874,0.006-1.748,0.032-2.622,0.056c-0.869,0.024-1.807-0.012-2.63,0.251
					c-0.029,0.009-0.03,0.041,0,0.051c0.777,0.248,1.656,0.224,2.476,0.247c0.874,0.024,1.747,0.053,2.622,0.059
					c1.851,0.012,3.701,0.022,5.552,0.026c1.799,0.004,3.599,0.008,5.398,0.011c1.758,0.004,3.59,0.135,5.328-0.112
					C146.221,361.477,146.222,361.051,145.919,361.008z"/>
				<path style="fill:#D5F2F9;" d="M159.282,361.145c-0.729-0.171-1.512-0.103-2.263-0.1c-0.783,0.002-1.566,0.005-2.349,0.012
					c-1.493,0.013-3.099-0.042-4.544,0.298c-0.093,0.022-0.093,0.136,0,0.158c1.444,0.339,3.051,0.285,4.544,0.298
					c0.783,0.007,1.566,0.009,2.349,0.012c0.751,0.002,1.535,0.07,2.263-0.101C159.62,361.641,159.621,361.224,159.282,361.145z"/>
				<path style="fill:#D5F2F9;" d="M125.808,365.151c-0.464-0.11-0.928-0.137-1.408-0.126c-0.232,0.005-0.46,0.012-0.691,0.036
					c-0.127,0.014-0.246,0.027-0.368,0.064c-0.043,0.013-0.1,0.024-0.139,0.044c-0.041,0.021-0.059,0.061-0.098,0.08
					c-0.054,0.026-0.054,0.094,0,0.12c0.039,0.019,0.057,0.058,0.098,0.08c0.039,0.02,0.097,0.031,0.139,0.044
					c0.122,0.037,0.239,0.05,0.368,0.064c0.231,0.025,0.458,0.031,0.691,0.036c0.481,0.011,0.944-0.016,1.408-0.126
					C125.993,365.423,125.994,365.195,125.808,365.151z"/>
				<path style="fill:#D5F2F9;" d="M153.566,365.132c-2.048-0.137-4.124-0.067-6.176-0.069c-2.11-0.002-4.22,0-6.331-0.016
					c-2.059-0.016-4.117-0.033-6.176-0.038c-1.03-0.003-2.059,0.003-3.088,0.018c-0.869,0.012-1.911-0.1-2.694,0.268
					c-0.089,0.042-0.089,0.156,0,0.198c0.744,0.35,1.713,0.255,2.539,0.266c1.03,0.014,2.058,0.022,3.088,0.02
					c2.11-0.005,4.22-0.022,6.331-0.038c2.059-0.016,4.117-0.014,6.176-0.016c2.103-0.002,4.232,0.071,6.331-0.069
					C153.966,365.628,153.967,365.159,153.566,365.132z"/>
				<g>
					<path style="fill:#D5F2F9;" d="M142.058,354.206c1.006,0.265,2.128,0.172,3.17,0.182c1.088,0.01,2.175,0.02,3.263,0.032
						c2.227,0.025,4.454,0.047,6.681,0.053c2.262,0.006,4.547,0.071,6.827,0.067v-1.049c-2.28-0.004-4.564,0.061-6.827,0.068
						c-2.175,0.006-4.35,0.027-6.526,0.052c-1.139,0.013-2.279,0.023-3.418,0.034c-1.041,0.01-2.165-0.082-3.17,0.182
						C141.837,353.886,141.836,354.148,142.058,354.206z"/>
					<path style="fill:#D5F2F9;" d="M160.392,356.522c-0.984,0.024-1.979,0.085-2.931,0.301c-0.07,0.016-0.07,0.102,0,0.118
						c0.952,0.216,1.947,0.278,2.931,0.301c0.504,0.012,1.009,0.016,1.514,0.025c0.031,0,0.062,0.001,0.092,0.001v-0.773
						c-0.031,0.001-0.061,0.001-0.092,0.001C161.402,356.505,160.897,356.509,160.392,356.522z"/>
					<path style="fill:#D5F2F9;" d="M161.999,364.88c-0.361,0.002-0.723,0.005-1.084,0.007c-0.723,0.005-1.446,0.012-2.168,0.019
						c-0.533,0.005-1.417-0.073-1.826,0.27c-0.032,0.027-0.032,0.072,0,0.098c0.406,0.341,1.296,0.265,1.826,0.27
						c0.723,0.007,1.446,0.014,2.168,0.019c0.361,0.002,0.723,0.004,1.084,0.007V364.88z"/>
				</g>
			</g>
		</g>
	</g>
	<g>
		<g>
			<path style="fill:#FFFFFF;" d="M237.941,78.827c-0.105-0.376-0.296-0.703-0.571-0.979c-0.15-0.116-0.299-0.231-0.449-0.347
				c-0.346-0.201-0.72-0.302-1.12-0.303c-0.306-0.011-0.591,0.052-0.855,0.191c-0.275,0.09-0.513,0.243-0.714,0.459
				c-0.216,0.201-0.369,0.439-0.459,0.714c-0.139,0.265-0.203,0.55-0.191,0.855c0.026,0.197,0.053,0.393,0.079,0.59
				c0.105,0.376,0.296,0.703,0.571,0.979c0.15,0.116,0.3,0.231,0.449,0.347c0.346,0.201,0.72,0.302,1.12,0.303
				c0.306,0.012,0.591-0.052,0.855-0.191c0.275-0.09,0.513-0.243,0.714-0.459c0.217-0.201,0.37-0.439,0.459-0.714
				c0.139-0.265,0.203-0.55,0.191-0.855C237.993,79.221,237.967,79.024,237.941,78.827z"/>
			<path style="fill:#FFFFFF;" d="M174.995,79.179c-1.99,0-1.993,3.092,0,3.092C176.985,82.271,176.988,79.179,174.995,79.179z"/>
			<path style="fill:#FFFFFF;" d="M176.957,93.88c-1.581,0-1.584,2.458,0,2.458C178.538,96.338,178.541,93.88,176.957,93.88z"/>
			<path style="fill:#FFFFFF;" d="M154.732,153.647c-0.113-0.403-0.317-0.753-0.612-1.049c-0.16-0.124-0.321-0.248-0.481-0.372
				c-0.371-0.215-0.771-0.323-1.2-0.325c-0.327-0.012-0.633,0.056-0.916,0.205c-0.295,0.096-0.55,0.26-0.765,0.492
				c-0.232,0.215-0.396,0.471-0.492,0.766c-0.149,0.283-0.217,0.589-0.205,0.916c0.028,0.211,0.057,0.422,0.085,0.632
				c0.113,0.403,0.317,0.753,0.612,1.049c0.161,0.124,0.321,0.248,0.481,0.372c0.371,0.215,0.771,0.323,1.2,0.325
				c0.327,0.012,0.633-0.056,0.916-0.205c0.295-0.096,0.55-0.26,0.766-0.492c0.232-0.215,0.396-0.47,0.492-0.765
				c0.149-0.283,0.217-0.589,0.205-0.916C154.789,154.069,154.76,153.858,154.732,153.647z"/>
			<path style="fill:#FFFFFF;" d="M124.783,238.668c-0.065-0.273-0.19-0.511-0.376-0.714c-0.148-0.229-0.345-0.409-0.589-0.541
				c-0.328-0.19-0.681-0.286-1.06-0.287c-0.379,0.001-0.732,0.097-1.06,0.287l-0.112,0.073c-0.139,0.108-0.279,0.215-0.418,0.323
				c-0.201,0.187-0.344,0.409-0.427,0.665c-0.093,0.161-0.14,0.335-0.141,0.521c-0.061,0.275-0.049,0.549,0.037,0.824
				c0.069,0.165,0.139,0.329,0.208,0.493c0.108,0.139,0.215,0.279,0.323,0.418c0.187,0.201,0.409,0.344,0.665,0.427
				c0.246,0.129,0.511,0.189,0.796,0.178c0.043-0.003,0.086-0.006,0.13-0.008c0.379-0.001,0.732-0.097,1.06-0.287
				c0.316-0.187,0.567-0.438,0.753-0.753c0.071-0.167,0.141-0.335,0.212-0.502C124.883,239.413,124.883,239.04,124.783,238.668z"/>
			<path style="fill:#FFFFFF;" d="M155.759,275.605c-0.051-0.181-0.143-0.339-0.275-0.472c-0.072-0.056-0.144-0.112-0.217-0.167
				c-0.167-0.097-0.347-0.146-0.54-0.146c-0.147-0.006-0.285,0.025-0.412,0.092c-0.133,0.043-0.247,0.117-0.344,0.221
				c-0.133,0.133-0.224,0.291-0.275,0.472c-0.051,0.19-0.051,0.379,0,0.569c0.015,0.039,0.03,0.079,0.044,0.118
				c0.007,0.02,0.015,0.04,0.022,0.059c0.032,0.087,0.067,0.196,0.109,0.261c0.052,0.067,0.103,0.134,0.155,0.201
				c0.09,0.097,0.196,0.165,0.319,0.205c0.143,0.061,0.195,0.094,0.382,0.086c0.011,0,0.253-0.034,0.264-0.036
				c0.129-0.031,0.242-0.09,0.337-0.178c0.108-0.07,0.193-0.163,0.255-0.278c0.033-0.079,0.067-0.158,0.1-0.237l0.002-0.006
				c0.002-0.006,0.004-0.012,0.007-0.018c0.007-0.019,0.014-0.038,0.021-0.056c0.015-0.04,0.03-0.081,0.045-0.121
				C155.81,275.984,155.81,275.794,155.759,275.605z"/>
			<path style="fill:#FFFFFF;" d="M67.102,307.719c-0.152-0.257-0.356-0.46-0.612-0.612c-0.036-0.022-0.072-0.045-0.108-0.067
				c-0.278-0.161-0.578-0.243-0.9-0.243c-0.322,0.001-0.622,0.082-0.9,0.243c-0.268,0.159-0.481,0.372-0.64,0.64
				c-0.161,0.278-0.243,0.578-0.244,0.9c0.001,0.322,0.082,0.622,0.244,0.9c0.159,0.268,0.372,0.481,0.64,0.64
				c0.278,0.161,0.578,0.242,0.9,0.243c0.322-0.001,0.622-0.082,0.9-0.243c0.036-0.022,0.072-0.045,0.108-0.067
				c0.256-0.152,0.46-0.356,0.612-0.612c0.154-0.266,0.232-0.553,0.233-0.861C67.334,308.272,67.256,307.985,67.102,307.719z"/>
			<path style="fill:#FFFFFF;" d="M167.689,334.838c-0.064-0.228-0.18-0.427-0.347-0.595c-0.168-0.167-0.366-0.283-0.595-0.347
				c-0.133-0.02-0.267-0.044-0.4-0.055c-0.019-0.001-0.038-0.002-0.057-0.001c-0.063,0.004-0.134,0.017-0.19,0.025
				c-0.051,0.007-0.129,0.013-0.19,0.026c-0.02,0.004-0.038,0.011-0.057,0.018c-0.201,0.057-0.376,0.159-0.525,0.306
				c-0.147,0.148-0.249,0.323-0.306,0.525c-0.057,0.211-0.057,0.422,0,0.632c0.015,0.054,0.042,0.1,0.063,0.15
				c0.001,0.01,0.003,0.02,0.004,0.031c0.042,0.175,0.122,0.328,0.241,0.458c0.06,0.101,0.141,0.182,0.242,0.242
				c0.075,0.069,0.16,0.121,0.25,0.164c0.006,0.004,0.013,0.006,0.018,0.01c0.012,0.008,0.021,0.018,0.033,0.026
				c0.141,0.09,0.293,0.138,0.456,0.146c0.163,0.037,0.326,0.029,0.489-0.022l0.293-0.124c0.185-0.109,0.331-0.256,0.44-0.44
				c0.14-0.283,0.162-0.401,0.187-0.721c0.001-0.017,0.002-0.035,0.001-0.052C167.737,335.106,167.716,334.97,167.689,334.838z"/>
			<path style="fill:#FFFFFF;" d="M294.903,288.293c-0.093-0.333-0.262-0.622-0.505-0.867L294,287.119
				c-0.306-0.178-0.637-0.267-0.992-0.268c-0.27-0.01-0.523,0.046-0.757,0.169c-0.244,0.079-0.454,0.215-0.632,0.406
				c-0.192,0.178-0.327,0.389-0.406,0.632c-0.123,0.234-0.179,0.486-0.169,0.757c0.023,0.174,0.047,0.348,0.07,0.522
				c0.093,0.333,0.262,0.622,0.505,0.867c0.133,0.102,0.265,0.205,0.398,0.307c0.306,0.178,0.637,0.267,0.991,0.268
				c0.271,0.01,0.523-0.046,0.757-0.169c0.243-0.079,0.454-0.215,0.632-0.406c0.192-0.178,0.327-0.389,0.406-0.632
				c0.123-0.234,0.179-0.486,0.169-0.757C294.95,288.641,294.927,288.467,294.903,288.293z"/>
			<path style="fill:#FFFFFF;" d="M304.545,279.295c0-0.129-0.033-0.249-0.098-0.36c-0.034-0.121-0.095-0.226-0.183-0.315
				c-0.063-0.107-0.149-0.193-0.256-0.256c-0.089-0.088-0.194-0.15-0.315-0.184c-0.17-0.089-0.353-0.13-0.55-0.123
				c-0.126,0.017-0.253,0.034-0.379,0.051c-0.114,0.048-0.227,0.096-0.341,0.144c-0.096,0.074-0.193,0.149-0.289,0.223
				c-0.074,0.096-0.149,0.193-0.223,0.289c-0.048,0.114-0.096,0.227-0.144,0.341c-0.059,0.19-0.068,0.379-0.025,0.569
				c0,0.129,0.033,0.249,0.097,0.36c0.057,0.177,0.156,0.33,0.295,0.459c0.028,0.027,0.056,0.055,0.084,0.083
				c0.118,0.128,0.259,0.218,0.421,0.27c0.156,0.082,0.324,0.119,0.504,0.113c0.116-0.016,0.232-0.031,0.348-0.047
				c0.222-0.062,0.414-0.174,0.577-0.336c0.028-0.027,0.056-0.055,0.084-0.083c0.074-0.096,0.149-0.193,0.223-0.289
				c0.048-0.114,0.096-0.227,0.144-0.341C304.579,279.675,304.587,279.485,304.545,279.295z"/>
			<path style="fill:#FFFFFF;" d="M318.937,190.651c-0.072-0.17-0.144-0.341-0.216-0.511c-0.112-0.144-0.223-0.289-0.335-0.433
				c-0.144-0.112-0.289-0.223-0.433-0.335c-0.17-0.072-0.341-0.144-0.511-0.216c-0.285-0.089-0.569-0.102-0.854-0.038
				c-0.193,0.001-0.373,0.049-0.54,0.146c-0.265,0.086-0.495,0.234-0.689,0.443c-0.023,0.025-0.046,0.05-0.069,0.075
				c-0.012,0.013-0.023,0.026-0.035,0.038c-0.005,0.006-0.01,0.011-0.015,0.017l-0.006,0.007c-0.101,0.131-0.203,0.263-0.304,0.394
				c-0.036,0.077-0.069,0.155-0.099,0.235c-0.122,0.231-0.177,0.48-0.167,0.748l0.069,0.516c0.06,0.158,0.125,0.313,0.196,0.465
				c0.085,0.145,0.196,0.276,0.31,0.4c0.006,0.006,0.011,0.012,0.017,0.018c0.011,0.012,0.022,0.025,0.034,0.037
				c0.023,0.026,0.047,0.051,0.07,0.077c0.145,0.112,0.289,0.223,0.433,0.335c0.17,0.072,0.341,0.144,0.511,0.216
				c0.284,0.089,0.569,0.102,0.853,0.038c0.193-0.001,0.373-0.049,0.54-0.146c0.181-0.051,0.339-0.142,0.472-0.275
				c0.161-0.095,0.289-0.223,0.384-0.384c0.133-0.134,0.224-0.291,0.275-0.472c0.134-0.255,0.196-0.53,0.184-0.825
				C318.988,191.03,318.963,190.841,318.937,190.651z"/>
			<path style="fill:#FFFFFF;" d="M341.064,111.058c-1.352,0-1.354,2.101,0,2.101C342.416,113.159,342.418,111.058,341.064,111.058z
				"/>
			<path style="fill:#FFFFFF;" d="M266.856,145.938c-2.321,0-2.325,3.607,0,3.607C269.177,149.545,269.181,145.938,266.856,145.938z
				"/>
			<path style="fill:#FFFFFF;" d="M353.487,219.205c-1.428,0-1.431,2.22,0,2.22C354.915,221.425,354.918,219.205,353.487,219.205z"
				/>
			<path style="fill:#FFFFFF;" d="M412.928,239.51l-0.032-0.097c-0.092-0.329-0.259-0.615-0.5-0.857
				c-0.131-0.101-0.262-0.202-0.393-0.304c-0.303-0.176-0.63-0.264-0.98-0.265c-0.267-0.01-0.517,0.046-0.748,0.167
				c-0.241,0.078-0.449,0.212-0.625,0.402c-0.189,0.176-0.323,0.384-0.402,0.625c-0.122,0.232-0.177,0.481-0.167,0.748
				c0.001,0.351,0.09,0.677,0.265,0.98c0.02,0.029,0.04,0.057,0.06,0.086c0.101,0.145,0.2,0.295,0.325,0.419
				c0.239,0.238,0.522,0.402,0.847,0.493c0.171,0.028,0.343,0.051,0.516,0.069c0.031,0.003,0.062,0.007,0.093,0.01
				c0.312-0.001,0.604-0.08,0.874-0.236c0.26-0.154,0.467-0.361,0.621-0.621c0.019-0.031,0.038-0.063,0.057-0.094
				c0.177-0.293,0.267-0.636,0.267-0.977C413.006,239.874,412.986,239.685,412.928,239.51z"/>
			<path style="fill:#FFFFFF;" d="M414.077,248.295c-0.022-0.077-0.061-0.144-0.117-0.201c-0.031-0.024-0.062-0.048-0.092-0.071
				c-0.071-0.041-0.148-0.062-0.23-0.062c-0.063-0.002-0.121,0.011-0.176,0.039c-0.056,0.018-0.105,0.05-0.147,0.094
				c-0.044,0.041-0.076,0.09-0.094,0.147c-0.029,0.054-0.042,0.113-0.039,0.176c0.005,0.04,0.011,0.081,0.016,0.121
				c0.022,0.077,0.061,0.144,0.117,0.201c0.031,0.024,0.061,0.048,0.092,0.071c0.071,0.041,0.148,0.062,0.23,0.062
				c0.063,0.002,0.121-0.011,0.176-0.039c0.056-0.018,0.105-0.05,0.147-0.094c0.044-0.041,0.076-0.09,0.094-0.147
				c0.029-0.054,0.042-0.113,0.039-0.176C414.088,248.376,414.083,248.335,414.077,248.295z"/>
			<path style="fill:#FFFFFF;" d="M443.179,298.046c-0.07-0.251-0.197-0.468-0.381-0.653c-0.1-0.077-0.2-0.154-0.299-0.231
				c-0.231-0.134-0.48-0.201-0.747-0.202c-0.204-0.008-0.394,0.035-0.57,0.127c-0.184,0.06-0.342,0.162-0.476,0.306
				c-0.144,0.134-0.246,0.293-0.306,0.476c-0.093,0.176-0.135,0.366-0.128,0.57c0.018,0.131,0.035,0.262,0.053,0.393
				c0.07,0.251,0.197,0.468,0.381,0.653c0.1,0.077,0.2,0.154,0.299,0.231c0.231,0.134,0.48,0.201,0.747,0.202
				c0.204,0.008,0.394-0.035,0.57-0.127c0.184-0.06,0.342-0.162,0.476-0.306c0.144-0.134,0.246-0.293,0.306-0.476
				c0.093-0.176,0.135-0.366,0.128-0.57C443.214,298.308,443.197,298.177,443.179,298.046z"/>
			<path style="fill:#FFFFFF;" d="M434.887,315.643c-0.587,0-0.588,0.912,0,0.912C435.474,316.555,435.475,315.643,434.887,315.643z
				"/>
		</g>
	</g>
</g>
</svg>
