<?xml version="1.0" encoding="utf-8"?>
<!-- Generator: Adobe Illustrator 27.5.0, SVG Export Plug-In . SVG Version: 6.00 Build 0)  -->
<svg version="1.1" id="Layer_1" xmlns="http://www.w3.org/2000/svg" xmlns:xlink="http://www.w3.org/1999/xlink" x="0px" y="0px"
	 viewBox="0 0 3500 2000" style="enable-background:new 0 0 3500 2000;" xml:space="preserve">
<rect x="0.001" style="fill:#FFFFFF;" width="3500" height="2000"/>
<g>
	<polygon style="fill:#50BFA5;" points="1590.568,677.071 1576.551,681.373 1567.138,659.584 1545.867,663.346 1536.157,648.191 
		1528.485,653.107 1541.472,673.376 1561.63,669.81 1571.423,692.478 1592.516,686.004 	"/>
	<polygon style="fill:#50BFA5;" points="2489.479,1460.781 2475.462,1465.083 2466.049,1443.294 2444.778,1447.056 
		2435.067,1431.901 2427.396,1436.816 2440.383,1457.085 2460.541,1453.521 2470.334,1476.188 2491.426,1469.714 	"/>
	<g>
		<g>
			<path style="fill:#50BFA5;" d="M1504.2,1718.755c0,0-74.798-253.524-80.799-309.447c-6.001-55.923,35.825-38.594,35.825-38.594
				s-35.185-106.561-9.742-131.853c25.443-25.291,48.394,21.851,48.394,21.851s7.702-129.357,34.829-129.405
				c50.527-0.09,49.531,141.078,49.531,141.078s12.896-55.268,39.951-40.116c40.801,22.849-17.708,133.606-17.708,133.606
				s51.989,0.038,70.251,26.252C1707.497,1439.161,1504.2,1718.755,1504.2,1718.755z"/>
		</g>
	</g>
	<g>
		<g>
			<path style="fill:#50BFA5;" d="M1528.654,1685.198c0,0-215.63-36.059-262.533-74.266c-46.903-38.208-0.48-55.436-0.48-55.436
				s-108.323-55.53-107.068-93.288c1.254-37.758,55.067-18.563,55.067-18.563s-91.272-104.076-69.664-123.842
				c40.248-36.816,145.764,71.374,145.764,71.374s-31.331-51.451,1.666-59.594c49.762-12.279,86.487,114.589,86.487,114.589
				s-9.331-50.103,24.981-43.428C1464.438,1414.721,1528.654,1685.198,1528.654,1685.198z"/>
		</g>
		<path style="fill:#3C8F7C;" d="M1402.874,1402.746c-34.397-6.22-24.981,43.428-24.981,43.428s-36.726-126.868-86.487-114.589
			c-32.997,8.143-1.666,59.594-1.666,59.594s-105.516-108.19-145.764-71.374l383.95,365.455
			C1521.092,1650.354,1460.542,1413.173,1402.874,1402.746z"/>
	</g>
	<g>
		<path style="fill:#355389;" d="M1590.001,1714.941c0,0-113.557-115.483-170.744-127.511
			c-57.187-12.025-46.901,28.662-46.901,28.662s-113.459-99.221-139.752-75.181c-26.293,24.041,2.148,47.25,2.148,47.25
			s-94.507-16.745-108.036,14.268c-20.789,47.655,134.641,73.593,134.641,73.593s-65.133,4.513-50.028,34.395
			C1234.108,1755.48,1590.001,1714.941,1590.001,1714.941z"/>
		<path style="fill:#466EB6;" d="M1126.716,1602.43c13.529-31.013,108.036-14.268,108.036-14.268s-28.441-23.209-2.148-47.25
			c26.293-24.04,136.225,61.687,136.225,61.687s-25.921-49.545,31.266-37.519c57.186,12.027,189.906,149.861,189.906,149.861
			L1126.716,1602.43z"/>
	</g>
	<g>
		<path style="fill:#F7CC7F;" d="M1770.788,523.905c-38.223,6.29-49.576,56.458-17.799,78.897
			c5.707,4.03,9.658,10.092,11.339,16.874l5.785,23.336c1.594,6.431,7.861,10.559,14.398,9.482l14.481-2.382
			c6.538-1.076,11.152-6.994,10.601-13.597c-2.009-24.093-4.494-32.831,3.338-43.577
			C1835.839,561.505,1809.021,517.614,1770.788,523.905z"/>
		<g>
			<path style="fill:#FAE0B2;" d="M1774.689,625.898c-2.489-20.642-5.982-42.433-7.171-48.614
				c-21.91,1.208-13.583-21.886-3.472-12.495c2.881,2.676,4.242,6.306,5.141,10.282c7.277-0.655,14.391-2.733,20.875-6.082
				c-0.35-5.09-0.852-8.947,0.57-12.205c2.146-4.92,8.381-6.26,10.918-1.465c0.953,1.8,1.119,4.103,0.43,6.01
				c-1.467,4.071-5.893,6.759-9.745,8.865c1.151,16.41,2.749,32.946,4.759,49.231l-2.068,0.256
				c-1.979-16.022-3.558-32.287-4.705-48.435c-6.437,3.2-13.443,5.205-20.611,5.88c1.498,7.902,4.813,29.144,7.148,48.523
				L1774.689,625.898z M1757.113,572.416c1.946,2.098,5.208,3.021,9.969,2.802c-0.822-3.507-2.041-6.662-4.455-8.902
				C1757.188,561.261,1753.848,568.896,1757.113,572.416z M1792.543,557.617c-1.195,2.738-0.74,6.245-0.466,10.277
				c3.129-1.782,6.766-4.009,7.943-7.274c0.825-2.288-0.104-5.523-2.434-6.12C1797.335,554.437,1793.381,555.696,1792.543,557.617z"
				/>
		</g>
		<path style="fill:#96D9C9;" d="M1764.159,619.1c0.052,0.194,0.121,0.381,0.169,0.577l5.785,23.336
			c1.594,6.431,7.861,10.559,14.398,9.483l14.481-2.383c6.538-1.076,11.152-6.994,10.601-13.597
			c-0.894-10.718-1.879-18.393-2.011-24.562L1764.159,619.1z"/>
		<g>
			<path style="fill:#FAE0B2;" d="M1742.455,506.479l-11.429-20.864c-1.105-2.02-0.366-4.553,1.653-5.66
				c2.019-1.105,4.553-0.366,5.66,1.653l11.429,20.865c1.105,2.02,0.366,4.553-1.653,5.66
				C1746.083,509.245,1743.555,508.488,1742.455,506.479z"/>
		</g>
		<g>
			<path style="fill:#FAE0B2;" d="M1717.47,556.948l-24.915-2.179c-2.293-0.201-3.99-2.222-3.79-4.517
				c0.2-2.293,2.223-3.991,4.517-3.789l24.915,2.179c2.293,0.2,3.991,2.223,3.79,4.516
				C1721.786,555.451,1719.768,557.147,1717.47,556.948z"/>
		</g>
		<g>
			<path style="fill:#FAE0B2;" d="M1692.766,633.333c-1.618-1.638-1.603-4.277,0.035-5.896c6.125-6.052,12.86-11.546,20.02-16.33
				c1.914-1.28,4.503-0.764,5.783,1.15c1.279,1.915,0.764,4.503-1.151,5.783c-6.72,4.49-13.042,9.646-18.791,15.327
				C1697.032,634.979,1694.392,634.979,1692.766,633.333z"/>
		</g>
		<g>
			<path style="fill:#FAE0B2;" d="M1804.014,505.352c-2.226-0.595-3.547-2.88-2.952-5.104c2.823-10.563,4.553-21.455,5.14-32.372
				c0.125-2.299,2.086-4.067,4.387-3.939c2.299,0.124,4.063,2.087,3.938,4.387c-0.617,11.492-2.438,22.958-5.409,34.076
				C1808.52,504.638,1806.221,505.945,1804.014,505.352z"/>
		</g>
		<g>
			<path style="fill:#FAE0B2;" d="M1829.672,537.38c-0.664-2.205,0.583-4.53,2.788-5.195l25.901-7.806
				c2.207-0.664,4.531,0.584,5.195,2.789c0.664,2.205-0.584,4.53-2.788,5.195l-25.902,7.807
				C1832.666,540.83,1830.338,539.589,1829.672,537.38z"/>
		</g>
		<g>
			<path style="fill:#FAE0B2;" d="M1872.221,606.302c-0.373,0-0.753-0.05-1.131-0.157c-8.975-2.522-17.701-6.021-25.938-10.397
				c-2.032-1.081-2.805-3.605-1.725-5.638c1.08-2.033,3.605-2.805,5.638-1.725c7.71,4.097,15.88,7.372,24.282,9.733
				c2.216,0.623,3.508,2.925,2.885,5.142C1875.715,605.1,1874.041,606.302,1872.221,606.302z"/>
		</g>
	</g>
	<path style="fill:#F7CC7F;" d="M2251.61,790.596l-13.067-30.901l-32.865-6.753c-3.742-0.769-4.979-5.497-2.091-8l25.351-21.977
		l-3.733-33.342c-0.426-3.798,3.688-6.435,6.962-4.462l28.734,17.318l30.558-13.854c3.48-1.578,7.259,1.52,6.396,5.243
		l-7.592,32.681l22.619,24.781c2.576,2.822,0.797,7.373-3.01,7.701l-33.427,2.88l-16.578,29.169
		C2257.978,794.4,2253.1,794.115,2251.61,790.596z"/>
	<polygon style="fill:#F48C7F;" points="2459.639,684.566 2454.267,706.199 2418.504,701.401 2406.748,732.062 2379.398,732.847 
		2379.796,746.692 2416.375,745.643 2427.516,716.586 2464.72,721.577 2472.803,689.024 	"/>
	<path style="fill:#B75742;" d="M2141.014,1721.592h-628.65c-24.011,0-43.477-20.189-43.477-45.095v-26.813
		c0-24.905,19.465-45.095,43.477-45.095h628.65l0,0c-28.758,32.603-29.255,82.426-1.155,115.639L2141.014,1721.592z"/>
	<path style="fill:#FAE0B2;" d="M2131.306,1617.995h-348.682c-24.012,0-43.477,20.19-43.477,45.096l0,0
		c0,24.904,19.465,45.094,43.477,45.094h348.712C2115.042,1680.521,2115.075,1645.587,2131.306,1617.995z"/>
	<path style="fill:#86B1F2;" d="M1920.158,1523.331c0.914-1.715-0.476-3.698-2.59-3.698h-332.642
		c-26.072,0-47.208,19.021-47.208,42.486l0,0c0,23.464,21.136,42.486,47.208,42.486h332.733c2.124,0,3.518-1.998,2.594-3.719l0,0
		C1907.082,1576.329,1907.115,1547.779,1920.158,1523.331z"/>
	<path style="fill:#F7CC7F;" d="M1918.06,1527.54h-164.857c-30.6,0-55.405,15.939-55.405,35.604
		c0,19.662,24.806,35.603,55.405,35.603h165.942C1907.8,1576.09,1907.489,1550.294,1918.06,1527.54z"/>
	<g>
		<path style="fill:#B75742;" d="M1875.484,1544.417h-21.471c-4.617,0-8.359,1.551-8.359,3.463v0.311h29.83V1544.417z"/>
		<path style="fill:#F47458;" d="M1893.799,1553.101c0-4.796-5.607-8.684-12.524-8.684h-27.553c5.245,0,9.499,2.948,9.499,6.586
			l-0.131,93.086l15.225-11.971l15.517,11.971L1893.799,1553.101z"/>
	</g>
	<g>
		<path style="fill:#FAE0B2;" d="M1859.001,1516.567h-193.547c-17.163,0-31.077-16.514-31.077-36.885l0,0
			c0-20.37,13.914-36.885,31.077-36.885h193.547l0,0c-14.794,20.448-15.372,50.444-1.382,71.674L1859.001,1516.567z"/>
		<path style="fill:#466EB6;" d="M1634.396,1479.683L1634.396,1479.683c0-20.37,14.242-36.885,31.811-36.885h196.484
			c0.917,0,1.657-0.866,1.647-1.929l0,0c-0.008-1.048-0.744-1.893-1.647-1.893h-311.695c-19.389,0-35.107,18.225-35.107,40.706l0,0
			c0,22.482,15.719,40.707,35.107,40.707h311.694c0.904,0,1.641-0.846,1.648-1.894l0,0c0.008-1.063-0.732-1.929-1.648-1.929
			h-196.483C1648.638,1516.567,1634.396,1500.054,1634.396,1479.683z"/>
		<g>
			<path style="fill:#184655;" d="M1825.205,1460.925h-21.47c-4.618,0-8.36,1.521-8.36,3.396v0.305h29.83V1460.925z"/>
			<path style="fill:#3C8F7C;" d="M1843.52,1469.441c0-4.704-5.607-8.517-12.524-8.517h-27.554c5.247,0,9.5,2.893,9.5,6.459
				l-0.131,91.287l15.225-11.739l15.517,11.739L1843.52,1469.441z"/>
		</g>
	</g>
	<g>
		<g>
			<path style="fill:#184655;" d="M2167.382,897.047l28.573-7.519l-19.367,258.298l-34.28,1.144l17.292-242.538
				C2159.919,901.961,2163.047,898.188,2167.382,897.047z"/>
			<g>
				<path style="fill:#F7CC7F;" d="M2179.15,1155.192c-0.639,0.059-1.294,0.051-1.958-0.028c-5.675-0.671-9.876-6.314-9.382-12.607
					l19.018-242.876c0.492-6.293,5.488-10.853,11.168-10.179c5.676,0.671,9.876,6.314,9.382,12.607l-19.017,242.877
					C2187.925,1150.543,2183.975,1154.747,2179.15,1155.192z"/>
				<path style="fill:#F7CC7F;" d="M1916.18,1168.128c0.012,0.179,0.02,0.356,0.036,0.536l0,0c0.896,9.881,8.552,17.271,17.1,16.506
					l241.305-21.597c8.549-0.765,14.753-9.396,13.858-19.277c-0.039-0.418-0.093-0.829-0.154-1.237L1916.18,1168.128z"/>
			</g>
		</g>
		<path style="fill:#F7A491;" d="M2084.211,1429.01c-15.802,8.762-64.099-6.602-64.099-7.99
			c-0.694,13.201-54.083,142.396-54.083,142.396l0.043,39.751c0,0,110.012,5.244,108.428-4.477
			c-1.582-9.722-7.498-3.398-29.443-21.76c-1.948-1.63-32.761-8.78-24.422-27.02
			C2037.426,1513.179,2073.094,1451.939,2084.211,1429.01z"/>
		<path style="fill:#3C8F7C;" d="M1962.455,1604.587l120.422,0.033c4.346-0.443,5.362-3.976,3.827-6.126
			c-3.162-4.427-26.239-14.864-41.753-21.787c-27.022,3.156-74.523-7.234-78.871-13.396
			C1954.644,1578.631,1960.03,1604.087,1962.455,1604.587z"/>
		<path style="fill:#355389;" d="M1936.038,1336.25c-1.628-4.886,103.681-49.575,108.394-44.469
			c8.338,9.032-56.977,178.571-56.977,178.571l75.042,22.929c0,0,78.015-195.872,74.758-231.697
			c-3.258-35.825-42.339-76.536-127.018-50.481S1936.038,1336.25,1936.038,1336.25z"/>
		<path style="fill:#F7A491;" d="M2154.078,1451.295c-17.775-3.237-40.818-4.158-59.263-4.478
			c2.173,16.424,12.729,100.637,10.8,105.811c-7.818,20.963-25.158,30.774-25.158,30.774s81.771,73.779,86.708,65.257
			c4.937-8.523-3.646-7.381-8.985-35.492c-0.474-2.495-12.296-41.734-13.029-62.897
			C2143.752,1509.905,2153.468,1473.707,2154.078,1451.295z"/>
		<path style="fill:#466EB6;" d="M2127.842,1175.792c-11.407-6.086-41.022-6.299-73.586-4.188
			c-63.486,4.114-126.151,16.608-186.545,36.613l-40.414,13.386l0.133-41.434c0,0-128.562-21.511-133.035,10.354
			c-6.736,47.982,1.622,145.396,44.458,167.138c133.049,67.535,319.499-107.592,320.173-84.678
			c0.906,30.77,26.849,145.275,33.479,195.411c18.445,0.319,50.137,0.306,63.881-2.85
			C2159.061,1367.333,2160.315,1193.117,2127.842,1175.792z"/>
		<path style="fill:#3C8F7C;" d="M2077.965,1585.127l91.922,73.428c3.643,2.411,6.667,0.323,6.842-2.313
			c0.36-5.429-10.875-28.128-18.487-43.314c-22.904-14.685-53.106-52.982-52.565-60.502
			C2095.985,1560.607,2076.407,1583.202,2077.965,1585.127z"/>
		<path style="fill:#13375B;" d="M1869.904,775.298c-3.088-28.226-6.339-56.556-29.737-77.245
			c-18.936-16.742-43.011-19.578-66.816-10.621c-67.45,25.379-32.696,85.283-118.702,145.679
			c-26.725,18.767-56.181,31.612-76.301,56.882c-28.163,35.372-17.53,77.92,8.137,106.327
			c122.815,135.921,259.928-47.643,269.771-91.707C1863.579,871.833,1871.891,793.468,1869.904,775.298z"/>
		<path style="fill:#50BFA5;" d="M1844.965,934.022c-10.033-18.495-20.367-33.171-20.367-33.171
			c-10.405-18.498-37.289-27.854-37.289-27.854s-8.992,0.182-19.318,0.689c-0.639,1.713-1.291,2.937-1.947,3.429
			c-3.881,2.91-26.119-0.847-40.484,8.905c-48.146,41.272-34.83,241.317-31.043,304.501l146.631,1.388
			c0,0-18.486-135.951,11.306-170.879C1873.2,996.706,1859.848,961.456,1844.965,934.022z"/>
		<path style="fill:#F7A491;" d="M1778.871,805.32c0,0-8.06,57.563-13.689,71.551s30.953,43.904,61.393,52.984
			c30.44,9.08-9.303-30.898-8.042-45.852c1.262-14.954,6.794-85.754,6.794-85.754L1778.871,805.32z"/>
		<path style="fill:#F47458;" d="M1823.789,818.553c0.89-11.712,1.537-20.304,1.537-20.304l-46.455,7.071
			c0,0-1.172,6.762-2.467,16.325C1795.237,832.571,1812.173,829.123,1823.789,818.553z"/>
		<path style="fill:#F7A491;" d="M1793.438,700.178c0,0-18.312,4.126-29.617,21.38c-11.306,17.254-19.064,68.049,18.175,91.758
			c37.237,23.711,66.197-9.828,66.678-42.54C1849.154,738.065,1842.145,694.409,1793.438,700.178z"/>
		<path style="fill:#F7A491;" d="M1857.197,760.539c-3.178,7.893-9.48,12.792-14.078,10.941c-4.598-1.851-5.75-9.75-2.573-17.644
			c3.177-7.893,9.479-12.792,14.078-10.941C1859.222,744.747,1860.374,752.646,1857.197,760.539z"/>
		<path style="fill:#13375B;" d="M1798.933,699.107c0,0-23.345,52.361-43.854,57.038c-20.508,4.676-20.212,31.023-20.212,31.023
			s0.459-60.843,19.68-74.799C1773.766,698.413,1798.933,699.107,1798.933,699.107z"/>
		<path style="fill:#F7A491;" d="M1763.228,767.027c2.699,8.503,0.229,16.876-5.519,18.701c-5.748,1.825-12.596-3.589-15.296-12.092
			c-2.7-8.503-0.229-16.876,5.519-18.702C1753.68,753.11,1760.527,758.524,1763.228,767.027z"/>
		<path style="fill:#F7A491;" d="M2025.504,1145.05c-8.799-3.181-21.895-3.575-21.675-4.738c0.884-4.702,39.749,10.376,34.498,3.518
			c-2.922-3.818-32.009-17.349-39.082-15.114c-6.86,2.166-51.905,14.809-51.905,14.809l-123.107-28.853
			c0,0-31.074-70.613-34.107-131.278c-25.686,3.474-43.173,9.821-65.498,22.212c10.765,58.016,36.935,152.057,65.859,169.703
			c12.168,7.424,157.464-8.885,157.464-8.885s32.019-2.262,37.251-4.274c3.969-1.527,14.185-7.28,19.743-8.854
			c12.632-3.577,35.139,5.403,35.209,2.931C2040.204,1154.423,2034.493,1148.3,2025.504,1145.05z"/>
		<path style="fill:#96D9C9;" d="M1790.879,918.574c-1.184-18.668-8.254-36.691-28.117-42.495
			c-12.31-3.597-26.12-0.155-35.958,7.879c-11.704,9.559-14.97,24.893-14.917,39.405c0.123,32.953,2.369,67.119,8.39,99.563
			c22.325-12.391,48.385-19.837,74.07-23.311C1794.337,999.422,1792.445,943.245,1790.879,918.574z"/>
	</g>
	<g>
		<path style="fill:#F7CC7F;" d="M1409.451,953.797l-190.858-35.54c-3.833-0.714-6.362-4.4-5.648-8.233l23.909-128.395
			c0.714-3.833,4.4-6.362,8.233-5.648l190.858,35.54c3.833,0.714,6.362,4.4,5.648,8.233l-23.909,128.395
			C1416.97,951.982,1413.284,954.511,1409.451,953.797z"/>
		<path style="fill:#F7CC7F;" d="M1318.6,807.016l-58.096-10.818c-3.833-0.713-6.362-4.399-5.648-8.232l3.638-19.537
			c0.714-3.833,4.4-6.362,8.233-5.648l58.096,10.818c3.833,0.714,6.362,4.4,5.648,8.233l-3.638,19.537
			C1326.119,805.201,1322.433,807.729,1318.6,807.016z"/>
		<path style="fill:#FAE0B2;" d="M1418.142,948.887c-0.991,3.514-4.498,5.691-8.086,5.023l-192.105-35.772
			c-3.573-0.666-6.057-3.935-5.741-7.555l10.054-115.092c0.173-1.983,1.176-3.802,2.762-5.006c1.586-1.205,3.606-1.684,5.564-1.32
			l213.41,39.74c1.951,0.363,3.658,1.53,4.705,3.215c1.046,1.685,1.336,3.733,0.797,5.643L1418.142,948.887z"/>
	</g>
	<g>
		<polygon style="fill:#50BFA5;" points="2293.539,528.353 2260.856,537.276 2253.817,497.67 2264.514,495.77 2269.47,523.665 
			2290.678,517.875 		"/>
	</g>
	<g>
		<path style="fill:#355389;" d="M1252.313,1072.276c8.183-0.666,20.752,2.94,26.384,6.76c0.847,0.791,7.327,3.371,14.061,14.529
			l-1.516,1.05c-7.107-7.438-11.886-9.105-17.579-10.813c-9.384-2.411-18.84-0.607-19.617-0.191L1252.313,1072.276z"/>
		<path style="fill:#F47458;" d="M1292.001,1094.091c0,0-49.868,8.322-45.218,47.278c4.65,38.957,57.259,69.265,104.213,45.17
			c63.165-32.412,38.216-114.815-6.741-121.188C1299.298,1058.978,1292.001,1094.091,1292.001,1094.091z"/>
		<path style="fill:#F48C7F;" d="M1313.157,1076.937c0,0,13.009-13.356,41.516-1.205c28.506,12.151,30.569,68.818,5.145,65.526
			C1334.395,1137.966,1292.828,1085.113,1313.157,1076.937z"/>
	</g>
	<g>
		<path style="fill:#86B1F2;" d="M1656.215,559.39l-205.101,73.164c-6.611,2.358-13.882-1.089-16.24-7.7l-37.857-106.125
			c-2.358-6.611,1.089-13.882,7.7-16.24l205.101-73.164c6.611-2.358,13.882,1.089,16.24,7.701l37.857,106.124
			C1666.273,549.76,1662.826,557.031,1656.215,559.39z"/>
		<path style="fill:#FFFFFF;" d="M1520.27,532.111c7.542,21.143-3.483,44.397-24.626,51.939s-44.397-3.484-51.939-24.627
			c-7.542-21.143,3.483-44.397,24.626-51.939C1489.474,499.942,1512.728,510.968,1520.27,532.111z"/>
		<path style="fill:#86B1F2;" d="M1487.812,526.422c2.224,6.235-1.027,13.092-7.262,15.316c-6.235,2.224-13.092-1.027-15.316-7.262
			c-2.224-6.235,1.027-13.092,7.262-15.316C1478.73,516.936,1485.587,520.188,1487.812,526.422z"/>
		<path style="fill:#86B1F2;" d="M1507.342,559.845l-36.076,12.869l-1.445-4.049c-2.635-7.387,1.217-15.512,8.604-18.146
			l9.326-3.327c7.387-2.635,15.511,1.217,18.146,8.604L1507.342,559.845z"/>
		<g>
			<path style="fill:#FFFFFF;" d="M1525.325,509.925c-2.186,0-4.148-1.383-4.883-3.442c-0.96-2.692,0.449-5.664,3.141-6.624
				l89.659-31.983c0.562-0.2,1.148-0.302,1.742-0.302c2.186,0,4.147,1.384,4.882,3.443c0.96,2.692-0.448,5.664-3.141,6.624
				l-89.658,31.983C1526.504,509.824,1525.918,509.925,1525.325,509.925z"/>
		</g>
		<g>
			<path style="fill:#FFFFFF;" d="M1549.528,532.276c-2.186,0-4.148-1.383-4.883-3.443c-0.96-2.692,0.449-5.663,3.141-6.624
				l70.025-24.979c0.562-0.201,1.148-0.302,1.741-0.302c2.186,0,4.148,1.383,4.882,3.443c0.465,1.304,0.395,2.711-0.198,3.962
				c-0.594,1.251-1.638,2.196-2.942,2.662l-70.025,24.98C1550.707,532.174,1550.121,532.276,1549.528,532.276z"/>
		</g>
	</g>
	<path style="fill:#F47458;" d="M1974.894,1359.874h-495.239c-15.379,0-27.846,12.467-27.846,27.846v23.422
		c0,15.379,12.467,27.846,27.846,27.846h495.239l-0.259-0.27C1953.447,1416.666,1953.562,1381.786,1974.894,1359.874z"/>
	<path style="fill:#FAE0B2;" d="M1966.126,1371.585H1701.38c-15.379,0-27.846,12.467-27.846,27.846l0,0
		c0,15.379,12.467,27.846,27.846,27.846h264.741C1956.389,1410.034,1956.402,1388.813,1966.126,1371.585z"/>
	<g>
		<g>
			<path style="fill:#FAE0B2;" d="M2380.218,1362.152l-37.54-94.184c-1.889-4.737,0.421-10.11,5.159-11.998l135.085-53.843
				c4.737-1.889,10.109,0.422,11.998,5.159l37.54,94.184c1.889,4.738-0.422,10.11-5.159,11.999l-135.084,53.842
				C2387.479,1369.2,2382.106,1366.89,2380.218,1362.152z"/>
			<path style="fill:#466EB6;" d="M2507.648,1307.692l-33.733-84.633c-0.543-1.36,0.12-2.9,1.479-3.443l0,0
				c1.359-0.541,2.9,0.121,3.442,1.48l33.733,84.634c0.542,1.36-0.121,2.901-1.48,3.442l0,0
				C2509.731,1309.715,2508.189,1309.052,2507.648,1307.692z"/>
			<path style="fill:#466EB6;" d="M2491.575,1296.545l-27.696-69.486c-0.541-1.359,0.121-2.9,1.481-3.442l0,0
				c1.358-0.542,2.9,0.121,3.442,1.48l27.695,69.487c0.542,1.358-0.121,2.9-1.479,3.441l0,0
				C2493.658,1298.567,2492.118,1297.905,2491.575,1296.545z"/>
			<path style="fill:#466EB6;" d="M2487.578,1315.692l-33.734-84.634c-0.541-1.359,0.121-2.901,1.481-3.442l0,0
				c1.359-0.542,2.9,0.121,3.442,1.48l33.733,84.634c0.542,1.359-0.12,2.9-1.48,3.442l0,0
				C2489.661,1317.715,2488.12,1317.052,2487.578,1315.692z"/>
			<path style="fill:#466EB6;" d="M2469.846,1300.38l-26.036-65.321c-0.542-1.36,0.121-2.901,1.48-3.442l0,0
				c1.359-0.542,2.9,0.121,3.442,1.479l26.036,65.321c0.542,1.36-0.12,2.901-1.48,3.443l0,0
				C2471.929,1302.401,2470.388,1301.739,2469.846,1300.38z"/>
			<g>
				<path style="fill:#355389;" d="M2506.74,1214.034l-0.679-1.704c-0.251-0.628-0.932-0.945-1.521-0.71l-12.82,5.11
					c-0.591,0.234-0.866,0.935-0.616,1.562l0.68,1.704c0.25,0.628,0.932,0.945,1.521,0.71l12.82-5.11
					C2506.715,1215.361,2506.99,1214.662,2506.74,1214.034z"/>
				<path style="fill:#355389;" d="M2509.646,1221.324l-0.68-1.704c-0.25-0.628-0.931-0.945-1.521-0.711l-12.82,5.111
					c-0.59,0.234-0.866,0.934-0.615,1.562l0.679,1.704c0.25,0.627,0.931,0.945,1.521,0.709l12.822-5.109
					C2509.621,1222.65,2509.896,1221.951,2509.646,1221.324z"/>
				<path style="fill:#355389;" d="M2512.551,1228.613l-0.679-1.704c-0.249-0.627-0.931-0.945-1.521-0.71l-12.821,5.11
					c-0.591,0.234-0.866,0.935-0.615,1.562l0.679,1.704c0.25,0.627,0.931,0.945,1.521,0.71l12.82-5.11
					C2512.525,1229.94,2512.802,1229.241,2512.551,1228.613z"/>
				<path style="fill:#355389;" d="M2515.457,1235.903l-0.679-1.704c-0.251-0.628-0.932-0.946-1.522-0.711l-12.82,5.11
					c-0.59,0.235-0.865,0.935-0.615,1.562l0.679,1.705c0.251,0.627,0.932,0.945,1.521,0.709l12.82-5.109
					C2515.432,1237.229,2515.707,1236.53,2515.457,1235.903z"/>
				<path style="fill:#355389;" d="M2518.362,1243.192l-0.679-1.704c-0.25-0.628-0.932-0.945-1.521-0.71l-12.821,5.109
					c-0.59,0.235-0.865,0.936-0.616,1.563l0.68,1.704c0.25,0.627,0.932,0.945,1.521,0.71l12.821-5.11
					C2518.337,1244.519,2518.612,1243.82,2518.362,1243.192z"/>
				<path style="fill:#355389;" d="M2521.268,1250.481l-0.679-1.703c-0.251-0.628-0.932-0.946-1.521-0.711l-12.82,5.11
					c-0.591,0.235-0.866,0.935-0.616,1.563l0.68,1.703c0.25,0.628,0.931,0.945,1.521,0.71l12.82-5.109
					C2521.242,1251.809,2521.518,1251.109,2521.268,1250.481z"/>
				<path style="fill:#355389;" d="M2524.174,1257.771l-0.68-1.704c-0.25-0.628-0.931-0.945-1.521-0.71l-12.82,5.109
					c-0.59,0.236-0.866,0.935-0.615,1.563l0.679,1.704c0.25,0.627,0.931,0.945,1.521,0.71l12.821-5.11
					C2524.147,1259.098,2524.424,1258.399,2524.174,1257.771z"/>
				<path style="fill:#355389;" d="M2527.078,1265.061l-0.679-1.704c-0.25-0.627-0.931-0.945-1.521-0.71l-12.821,5.11
					c-0.591,0.235-0.865,0.934-0.616,1.562l0.68,1.704c0.25,0.628,0.931,0.945,1.521,0.71l12.82-5.109
					C2527.053,1266.387,2527.329,1265.688,2527.078,1265.061z"/>
				<path style="fill:#355389;" d="M2529.984,1272.35l-0.68-1.703c-0.25-0.628-0.931-0.945-1.521-0.71l-12.82,5.109
					c-0.59,0.235-0.865,0.935-0.615,1.563l0.679,1.703c0.251,0.628,0.932,0.946,1.521,0.711l12.82-5.11
					C2529.959,1273.677,2530.234,1272.978,2529.984,1272.35z"/>
				<path style="fill:#355389;" d="M2532.891,1279.64l-0.68-1.704c-0.251-0.627-0.932-0.945-1.521-0.71l-12.82,5.11
					c-0.59,0.235-0.866,0.934-0.616,1.562l0.679,1.704c0.25,0.628,0.932,0.945,1.521,0.71l12.821-5.109
					C2532.864,1280.967,2533.14,1280.267,2532.891,1279.64z"/>
				<path style="fill:#355389;" d="M2535.795,1286.93l-0.68-1.705c-0.249-0.627-0.93-0.945-1.521-0.709l-12.821,5.109
					c-0.59,0.235-0.865,0.935-0.615,1.562l0.679,1.704c0.251,0.628,0.932,0.946,1.521,0.711l12.821-5.11
					C2535.77,1288.256,2536.045,1287.557,2535.795,1286.93z"/>
				<path style="fill:#355389;" d="M2538.7,1294.219l-0.679-1.704c-0.25-0.627-0.932-0.945-1.521-0.71l-12.82,5.11
					c-0.59,0.234-0.866,0.934-0.615,1.562l0.679,1.704c0.249,0.628,0.931,0.945,1.521,0.71l12.821-5.11
					C2538.675,1295.545,2538.951,1294.846,2538.7,1294.219z"/>
			</g>
		</g>
		<g>
			<path style="fill:#B75742;" d="M2574.121,1286.716l-53.614,76.343c-0.12,0.171-0.213,0.359-0.277,0.558l-5.465,16.774
				c-0.637,1.953,1.62,3.564,3.261,2.327l14.35-10.815c0.176-0.132,0.329-0.291,0.455-0.471l53.751-76.539
				c0.688-0.979,0.42-2.333-0.588-2.978l-9.022-5.762C2576.023,1285.548,2574.768,1285.796,2574.121,1286.716z"/>
			<path style="fill:#F7CC7F;" d="M2532.771,1371.515l-0.132,0.188l-13.846,10.436l-3.776-2.525l5.18-15.9
				C2524.255,1365.931,2529.114,1368.21,2532.771,1371.515z"/>
		</g>
	</g>
	<g>
		<path style="fill:#466EB6;" d="M2030.974,460.248c7.718,6.159,21.143,25.979,38.271,39.893c10.02,8.139,17.736,6.068,30.526,7.615
			c60.684,7.335,44.239,19.739,51.517,20.957c-2.066,4.756-20.973,44.944-24.505,53.066c-3.259,7.493-8.892,10.846-17.055,9.717
			c-12.549-1.735-25.212-3.025-37.565-5.704c-31.67-6.868-49.293-22.708-71.99-41.945c-6.021-5.104-7.505-11.47-4.383-18.683
			C2010.319,491.593,2029.396,463.338,2030.974,460.248z"/>
		<path style="fill:#86B1F2;" d="M2157.862,577.057c-0.273,13.225,0.739,15.878-4.939,13.872c-3.419-1.208-6.731-2.781-9.959-4.447
			c-2.278-1.176-2.366-2.727-0.516-4.585c2.694-2.705,5.46-5.34,8.155-7.966c-1.973-5.186,0.286-11.222,5.138-14.061
			c0.99-0.58,0.267,0.65,8.718-18.799c-27.945-3.448-47.664-5.762-81.758-9.954c-9.115-1.121-17.223-4.664-24.273-10.563
			c-24.353-20.375-48.703-40.752-73.037-61.149c-3.301-2.767-3.719-6.821-1.099-9.941c2.004-2.387,4.662-2.501,7.517-2.143
			c7.783,0.976,84.074,10.454,91.818,11.359c10.179,1.19,19.14,5.023,27.01,11.613c23.924,20.034,47.909,39.995,71.863,59.993
			c3.287,2.744,4.177,5.262,3.023,8.314c-1.269,3.353-4.039,4.952-8.226,4.048c-3.023-0.652-4.359,0.26-5.399,3.058
			c-4.699,12.649-7.977,15.449-6.845,20.067C2165.929,569.337,2161.691,575.508,2157.862,577.057z"/>
	</g>
	<g>
		<path style="fill:#466EB6;" d="M2284.428,1475.393l13.904,13.259c32.886,31.365,59.705,68.527,79.11,109.621l2.13,4.512
			c0,0,36.408,3.217,41.492-29.699l0,0c-31.943-36.069-58.238-74.57-79.938-117.401l-6.581-15.394L2284.428,1475.393z"/>
		<path style="fill:#86B1F2;" d="M2334.515,1440.246c1.787,2.563-7.978,12.461-21.812,22.108
			c-13.832,9.648-26.559,15.509-28.346,12.947c-1.787-2.563,8.041-12.578,21.875-22.226
			C2320.065,1443.429,2332.729,1437.685,2334.515,1440.246z"/>
		<path style="fill:#355389;" d="M2334.572,1440.339l-0.044-0.05c0,0-27.715,23.458-39.14,25.853l3.528,4.802
			c4.171-2.257,8.91-5.187,13.786-8.589C2326.377,1452.818,2336.075,1443.038,2334.572,1440.339z"/>
		<g>
			<path style="fill:#B75742;" d="M2371.598,1508.449c0.05,4.044-1.496,21.497-30.536,28.782c1.911,2.602,3.789,5.227,5.632,7.877
				c18.382-5.435,26.648-14.872,30.363-22.056c0.586-1.136,1.297-2.663,1.769-3.841
				C2376.373,1515.652,2373.964,1512.065,2371.598,1508.449z"/>
			<polygon style="fill:#B75742;" points="2343.666,1532.07 2300.93,1530.543 2311.057,1539.138 2305.006,1550.12 
				2345.456,1539.808 			"/>
			<polygon style="fill:#B75742;" points="2347.563,1542.01 2332.377,1568.462 2343.057,1564.396 2347.169,1572.796 
				2354.306,1544.976 			"/>
			<path style="fill:#F47458;" d="M2353.361,1549.181c-7.505,0.531-14.033-5.307-14.58-13.039
				c-0.548-7.732,5.093-14.432,12.599-14.963c7.505-0.531,14.033,5.307,14.58,13.039
				C2366.507,1541.951,2360.867,1548.65,2353.361,1549.181z"/>
		</g>
	</g>
	<g>
		<path style="fill:#9BC1F9;" d="M2444.077,949.012l-90.001-80.312c-5.849-5.219-3.413-15.956,4.655-20.525l71.829-40.671
			c4.599-2.604,9.778-2.362,13.111,0.613l90.002,80.312c5.848,5.219,3.413,15.957-4.655,20.525l-71.829,40.671
			C2452.591,952.229,2447.411,951.987,2444.077,949.012z"/>
		<g>
			<path style="fill:#FFFFFF;" d="M2439.813,885.125l-7.502-61.704c-0.288-2.363,1.434-4.888,3.844-5.64
				c2.409-0.753,4.597,0.557,4.884,2.919l6.906,56.78l68.246,16.503c2.224,0.537,3.251,2.937,2.289,5.36
				c-0.963,2.42-3.55,3.947-5.779,3.407L2439.813,885.125z"/>
		</g>
	</g>
	<g>
		<path style="fill:#184655;" d="M920.419,1720.853c-4.817,0-8.722,4.518-8.722,10.094c0,5.574,3.905,10.093,9.764,3.318h1772.616
			c2.27,0,4.112-2.977,4.127-6.664l0,0c0.014-3.72-1.837-6.748-4.127-6.748H920.419z"/>
	</g>
	<polygon style="fill:#F7CC7F;" points="1264.548,602.494 1273.851,620.896 1294.868,620.217 1303.836,641.583 1325.999,633.956 
		1337.207,657.672 1358.48,653.165 1372.994,674.22 1365.025,679.713 1354.173,663.971 1331.725,668.727 1320.951,645.93 
		1298.417,653.685 1288.521,630.106 1267.997,630.77 1259.374,613.713 1245.987,616.968 1243.7,607.563 	"/>
	<polygon style="fill:#50BFA5;" points="2390.1,1073.271 2409.203,1081.034 2424.603,1066.714 2445.4,1076.934 2457.1,1056.623 
		2481.129,1067.142 2494.208,1049.768 2518.982,1056.108 2516.583,1065.484 2498.06,1060.745 2484.258,1079.077 2461.159,1068.967 
		2449.265,1089.617 2426.314,1078.341 2411.275,1092.324 2393.569,1085.128 2385.614,1096.377 2377.711,1090.788 	"/>
</g>
</svg>
